{
.appVersion = "1231";
DisplayStrings = (
"ABCDEFGHIJKLMN\012OPQRSTUVWXYZ\012abcdefghijklmno\012pqrstuvwxyz\0120123456789\012(.,:-ä¨öüß)\012\012\012ABCDEFGHIJKLMN\012OPQRSTUVWXYZ\012abcdefghiklmnopqrstuvwxyz\012\012saucissons\012 traduction \012hello world\012un Village en France\012\012\012"
);
copyright = "Copyright (c) 2019 ANRT. All rights reserved.";
customParameters = (
{
name = glyphOrder;
value = (
.notdef,
emspace,
enspace,
threeperemspace,
fourperemspace,
space,
thinspace,
hairspace,
A,
Adieresis,
B,
C,
D,
E,
F,
G,
H,
I,
J,
K,
L,
M,
N,
O,
P,
Q,
R,
S,
T,
U,
Udieresis,
V,
W,
X,
Y,
Z,
a,
adieresis,
a_e,
b,
c,
c_h,
c_k,
d,
e,
f,
f_f,
g,
h,
i,
j,
k,
l,
m,
n,
o,
odieresis,
o_e,
p,
q,
r,
s,
longs,
germandbls,
t,
u,
udieresis,
v,
w,
x,
y,
z,
zero,
one,
two,
three,
four,
five,
six,
seven,
eight,
nine,
ampersand,
period,
comma,
semicolon,
colon,
guillemetleft,
guillemetright,
exclam,
question,
hyphen,
emdash,
parenleft,
parenright,
dieresis,
mark
);
},
{
name = licenseURL;
value = "https://opensource.org/licenses/OFL-1.1";
},
{
name = license;
value = "SIL OPEN FONT LICENSE (OFL 1.1)";
},
{
name = "Use Typo Metrics";
value = 1;
},
{
name = vendorID;
value = ANRT;
},
{
name = unicodeRanges;
value = (
0
);
},
{
name = codePageRanges;
value = (
1252
);
},
{
name = openTypeOS2Type;
value = (
2
);
},
{
name = fsType;
value = (
2
);
},
{
name = description;

glyphs = (
{
color = 3;
glyphname = A;
lastChange = "2019-04-24 17:43:03 +0000";
layers = (
{
layerId = "DAB95E6E-43D9-4086-BFEC-49256C9AEEE3";
paths = (
{
closed = 1;
nodes = (
"379 580 LINE",
"370 580 LINE",
"229 244 LINE",
"315 239 OFFCURVE",
"412 239 OFFCURVE",
"518 244 CURVE"
);
},
{
closed = 1;
nodes = (
"421 151 OFFCURVE",
"311 148 OFFCURVE",
"211 151 CURVE",
"155 0 LINE",
"38 0 LINE",
"35 9 LINE",
"294 587 LINE",
"203 587 OFFCURVE",
"114 583 OFFCURVE",
"24 568 CURVE",
"15 582 LINE",
"52 679 LINE",
"249 666 OFFCURVE",
"587 676 OFFCURVE",
"733 710 CURVE",
"742 696 LINE",
"664 587 LINE",
"455 587 LINE",
"724 9 LINE",
"722 0 LINE",
"599 0 LINE",
"541 156 LINE"
);
}
);
width = 757;
}
);
unicode = 0041;
},
{
color = 3;
glyphname = Adieresis;
lastChange = "2019-04-24 17:43:03 +0000";
layers = (
{
layerId = "DAB95E6E-43D9-4086-BFEC-49256C9AEEE3";
paths = (
{
closed = 1;
nodes = (
"617 101 LINE",
"145 101 LINE",
"170 172 LINE",
"590 172 LINE"
);
},
{
closed = 1;
nodes = (
"581 133 LINE",
"591 156 LINE",
"399 582 LINE",
"390 582 LINE",
"320 454 OFFCURVE",
"243 302 OFFCURVE",
"181 163 CURVE",
"197 148 LINE",
"132 0 LINE",
"18 0 LINE",
"15 9 LINE",
"142 255 OFFCURVE",
"364 677 OFFCURVE",
"391 750 CURVE",
"447 750 LINE",
"559 500 OFFCURVE",
"696 204 OFFCURVE",
"794 9 CURVE",
"792 0 LINE",
"635 0 LINE"
);
},
{
closed = 1;
nodes = (
"186 725 LINE",
"156 507 LINE",
"168 501 LINE",
"217 580 OFFCURVE",
"268 659 OFFCURVE",
"323 738 CURVE",
"321 745 LINE"
);
},
{
closed = 1;
nodes = (
"671 523 LINE",
"663 594 OFFCURVE",
"654 663 OFFCURVE",
"641 736 CURVE",
"527 745 LINE",
"521 736 LINE",
"658 515 LINE"
);
}
);
width = 809;
}
);
unicode = 00C4;
},
{
color = 3;
glyphname = B;
lastChange = "2019-04-24 17:43:03 +0000";
layers = (
{
layerId = "DAB95E6E-43D9-4086-BFEC-49256C9AEEE3";
paths = (
{
closed = 1;
nodes = (
"164 0 LINE SMOOTH",
"374 0 OFFCURVE",
"480 85 OFFCURVE",
"480 195 CURVE SMOOTH",
"480 314 OFFCURVE",
"342 354 OFFCURVE",
"263 371 CURVE",
"272 354 LINE",
"364 375 OFFCURVE",
"474 448 OFFCURVE",
"474 556 CURVE SMOOTH",
"474 639 OFFCURVE",
"394 710 OFFCURVE",
"274 710 CURVE SMOOTH",
"199 710 OFFCURVE",
"140 700 OFFCURVE",
"48 700 CURVE",
"45 686 LINE",
"71 587 OFFCURVE",
"75 230 OFFCURVE",
"58 0 CURVE"
);
},
{
closed = 1;
nodes = (
"360 105 OFFCURVE",
"298 60 OFFCURVE",
"208 60 CURVE SMOOTH",
"183 60 LINE",
"183 338 LINE",
"202 337 LINE SMOOTH",
"279 333 OFFCURVE",
"360 275 OFFCURVE",
"360 185 CURVE SMOOTH"
);
},
{
closed = 1;
nodes = (
"183 385 LINE",
"183 645 LINE",
"197 648 OFFCURVE",
"213 650 OFFCURVE",
"237 650 CURVE SMOOTH",
"307 650 OFFCURVE",
"354 616 OFFCURVE",
"354 546 CURVE SMOOTH",
"354 466 OFFCURVE",
"290 400 OFFCURVE",
"190 386 CURVE SMOOTH"
);
}
);
width = 510;
}
);
leftMetricsKey = H;
unicode = 0042;
},
{
color = 3;
glyphname = C;
lastChange = "2019-04-24 17:43:03 +0000";
layers = (
{
layerId = "DAB95E6E-43D9-4086-BFEC-49256C9AEEE3";
paths = (
{
closed = 1;
nodes = (
"579 593 LINE",
"526 700 LINE",
"498 707 OFFCURVE",
"464 710 OFFCURVE",
"429 710 CURVE SMOOTH",
"219 710 OFFCURVE",
"40 512 OFFCURVE",
"40 302 CURVE SMOOTH",
"40 92 OFFCURVE",
"206 -27 OFFCURVE",
"477 -6 CURVE",
"531 25 OFFCURVE",
"579 67 OFFCURVE",
"624 107 CURVE",
"624 181 LINE",
"608 187 LINE",
"572 155 OFFCURVE",
"493 90 OFFCURVE",
"400 90 CURVE SMOOTH",
"260 90 OFFCURVE",
"155 207 OFFCURVE",
"155 347 CURVE SMOOTH",
"155 507 OFFCURVE",
"254 610 OFFCURVE",
"414 610 CURVE SMOOTH",
"464 610 OFFCURVE",
"512 603 OFFCURVE",
"556 579 CURVE"
);
}
);
width = 634;
}
);
unicode = 0043;
},
{
color = 3;
glyphname = D;
lastChange = "2019-04-24 17:43:03 +0000";
layers = (
{
layerId = "DAB95E6E-43D9-4086-BFEC-49256C9AEEE3";
paths = (
{
closed = 1;
nodes = (
"44 700 LINE",
"97 707 OFFCURVE",
"167 710 OFFCURVE",
"264 710 CURVE SMOOTH",
"502 710 OFFCURVE",
"653 562 OFFCURVE",
"653 354 CURVE SMOOTH",
"653 130 OFFCURVE",
"451 -4 OFFCURVE",
"225 -4 CURVE SMOOTH",
"161 -4 OFFCURVE",
"102 -3 OFFCURVE",
"48 -1 CURVE",
"48 39 LINE",
"89 45 LINE",
"89 647 LINE",
"44 660 LINE"
);
},
{
closed = 1;
nodes = (
"204 351 CURVE SMOOTH",
"204 225 OFFCURVE",
"205 117 OFFCURVE",
"209 54 CURVE",
"270 56 LINE SMOOTH",
"417 61 OFFCURVE",
"533 185 OFFCURVE",
"533 354 CURVE SMOOTH",
"533 502 OFFCURVE",
"450 665 OFFCURVE",
"210 665 CURVE",
"205 643 OFFCURVE",
"204 489 OFFCURVE"
);
}
);
width = 683;
}
);
unicode = 0044;
},
{
color = 3;
glyphname = E;
lastChange = "2019-04-24 17:43:03 +0000";
layers = (
{
background = {
components = (
{
name = G;
transform = "{1, 0, 0, 1, -43, 0}";
}
);
};
layerId = "DAB95E6E-43D9-4086-BFEC-49256C9AEEE3";
paths = (
{
closed = 1;
nodes = (
"160 570 OFFCURVE",
"262 650 OFFCURVE",
"402 650 CURVE SMOOTH",
"509 650 OFFCURVE",
"572 578 OFFCURVE",
"593 536 CURVE",
"628 536 LINE",
"628 683 LINE",
"568 697 OFFCURVE",
"515 710 OFFCURVE",
"422 710 CURVE SMOOTH",
"212 710 OFFCURVE",
"40 570 OFFCURVE",
"40 350 CURVE SMOOTH",
"40 130 OFFCURVE",
"165 -10 OFFCURVE",
"405 -10 CURVE SMOOTH",
"503 -10 OFFCURVE",
"592 25 OFFCURVE",
"631 44 CURVE",
"631 194 LINE",
"596 194 LINE",
"577 126 OFFCURVE",
"512 60 OFFCURVE",
"405 60 CURVE SMOOTH",
"235 60 OFFCURVE",
"160 190 OFFCURVE",
"160 360 CURVE SMOOTH"
);
},
{
closed = 1;
nodes = (
"130 305 LINE",
"504 305 LINE SMOOTH",
"549 305 OFFCURVE",
"571 285 OFFCURVE",
"593 268 CURVE",
"603 273 LINE",
"603 418 LINE",
"593 422 LINE",
"575 411 OFFCURVE",
"549 395 OFFCURVE",
"504 395 CURVE SMOOTH",
"130 395 LINE"
);
}
);
width = 651;
}
);
unicode = 0045;
},
{
color = 3;
glyphname = F;
lastChange = "2019-04-24 17:43:03 +0000";
layers = (
{
layerId = "DAB95E6E-43D9-4086-BFEC-49256C9AEEE3";
paths = (
{
closed = 1;
nodes = (
"315 427 OFFCURVE",
"416 427 OFFCURVE",
"496 433 CURVE",
"496 342 LINE",
"434 338 OFFCURVE",
"322 340 OFFCURVE",
"250 345 CURVE",
"252 231 OFFCURVE",
"257 114 OFFCURVE",
"267 0 CURVE",
"121 0 LINE",
"141 352 LINE",
"90 354 OFFCURVE",
"60 353 OFFCURVE",
"32 343 CURVE",
"20 352 LINE",
"44 447 LINE",
"76 450 OFFCURVE",
"111 446 OFFCURVE",
"143 440 CURVE",
"151 569 LINE",
"179 628 OFFCURVE",
"286 710 OFFCURVE",
"426 710 CURVE SMOOTH",
"485 710 OFFCURVE",
"537 689 OFFCURVE",
"561 672 CURVE",
"561 571 LINE",
"526 571 LINE",
"505 618 OFFCURVE",
"457 650 OFFCURVE",
"397 650 CURVE SMOOTH",
"321 650 OFFCURVE",
"269 596 OFFCURVE",
"253 549 CURVE SMOOTH",
"251 542 OFFCURVE",
"249 491 OFFCURVE",
"253 430 CURVE"
);
}
);
width = 561;
}
);
unicode = 0046;
},
{
color = 3;
glyphname = G;
lastChange = "2019-04-24 17:43:03 +0000";
layers = (
{
layerId = "DAB95E6E-43D9-4086-BFEC-49256C9AEEE3";
paths = (
{
closed = 1;
nodes = (
"508 650 OFFCURVE",
"592 584 OFFCURVE",
"628 536 CURVE",
"663 536 LINE",
"663 683 LINE",
"591 704 OFFCURVE",
"531 710 OFFCURVE",
"454 710 CURVE SMOOTH",
"234 710 OFFCURVE",
"40 564 OFFCURVE",
"40 344 CURVE SMOOTH",
"40 134 OFFCURVE",
"205 0 OFFCURVE",
"431 -10 CURVE",
"508 23 OFFCURVE",
"587 52 OFFCURVE",
"666 79 CURVE",
"666 300 LINE",
"551 300 LINE",
"547 286 LINE",
"554 229 OFFCURVE",
"554 151 OFFCURVE",
"547 90 CURVE",
"394 73 OFFCURVE",
"160 154 OFFCURVE",
"160 374 CURVE SMOOTH",
"160 534 OFFCURVE",
"258 650 OFFCURVE",
"418 650 CURVE SMOOTH"
);
}
);
width = 711;
}
);
unicode = 0047;
},
{
color = 3;
glyphname = H;
lastChange = "2019-04-24 17:43:03 +0000";
layers = (
{
layerId = "DAB95E6E-43D9-4086-BFEC-49256C9AEEE3";
paths = (
{
closed = 1;
nodes = (
"45 0 LINE",
"59 233 OFFCURVE",
"59 462 OFFCURVE",
"45 700 CURVE",
"183 700 LINE",
"186 690 LINE",
"162 593 OFFCURVE",
"161 111 OFFCURVE",
"191 10 CURVE",
"188 0 LINE"
);
},
{
closed = 1;
nodes = (
"464 10 LINE",
"494 111 OFFCURVE",
"492 593 OFFCURVE",
"469 690 CURVE",
"472 700 LINE",
"610 700 LINE",
"595 467 OFFCURVE",
"595 238 OFFCURVE",
"610 0 CURVE",
"467 0 LINE"
);
},
{
closed = 1;
nodes = (
"535 397 LINE",
"535 322 LINE",
"123 322 LINE",
"123 397 LINE"
);
}
);
width = 655;
}
);
unicode = 0048;
},
{
color = 3;
glyphname = I;
lastChange = "2019-04-24 17:43:03 +0000";
layers = (
{
layerId = "DAB95E6E-43D9-4086-BFEC-49256C9AEEE3";
paths = (
{
closed = 1;
nodes = (
"46 0 LINE",
"45 3 LINE",
"63 104 OFFCURVE",
"72 600 OFFCURVE",
"47 697 CURVE",
"48 700 LINE",
"187 700 LINE",
"188 697 LINE",
"164 600 OFFCURVE",
"165 104 OFFCURVE",
"193 3 CURVE",
"192 0 LINE"
);
}
);
width = 238;
}
);
leftMetricsKey = H;
rightMetricsKey = H;
unicode = 0049;
},
{
color = 3;
glyphname = J;
lastChange = "2019-04-24 17:43:03 +0000";
layers = (
{
layerId = "DAB95E6E-43D9-4086-BFEC-49256C9AEEE3";
paths = (
{
closed = 1;
nodes = (
"309 216 CURVE SMOOTH",
"309 126 OFFCURVE",
"261 80 OFFCURVE",
"191 80 CURVE SMOOTH",
"132 80 OFFCURVE",
"55 95 OFFCURVE",
"23 120 CURVE",
"5 110 LINE",
"48 0 LINE",
"79 -6 OFFCURVE",
"135 -9 OFFCURVE",
"161 -9 CURVE SMOOTH",
"268 -9 OFFCURVE",
"385 58 OFFCURVE",
"418 125 CURVE",
"420 317 OFFCURVE",
"429 508 OFFCURVE",
"446 700 CURVE",
"287 700 LINE",
"296 599 OFFCURVE",
"309 382 OFFCURVE"
);
}
);
width = 476;
}
);
unicode = 004A;
},
{
color = 3;
glyphname = K;
lastChange = "2019-04-24 17:43:03 +0000";
layers = (
{
layerId = "DAB95E6E-43D9-4086-BFEC-49256C9AEEE3";
paths = (
{
closed = 1;
nodes = (
"181 315 LINE",
"478 710 LINE",
"577 629 LINE",
"465 539 OFFCURVE",
"361 440 OFFCURVE",
"265 334 CURVE",
"382 231 OFFCURVE",
"535 95 OFFCURVE",
"588 80 CURVE",
"588 52 LINE",
"441 -10 LINE",
"181 301 LINE"
);
},
{
closed = 1;
nodes = (
"49 19 LINE",
"79 120 OFFCURVE",
"83 605 OFFCURVE",
"45 705 CURVE",
"47 710 LINE",
"196 700 LINE",
"181 470 OFFCURVE",
"179 229 OFFCURVE",
"193 -6 CURVE",
"189 -10 LINE",
"50 15 LINE"
);
}
);
width = 608;
}
);
leftMetricsKey = H;
unicode = 004B;
},
{
color = 3;
glyphname = L;
lastChange = "2019-04-24 17:43:03 +0000";
layers = (
{
layerId = "DAB95E6E-43D9-4086-BFEC-49256C9AEEE3";
paths = (
{
closed = 1;
nodes = (
"45 0 LINE",
"59 233 OFFCURVE",
"59 462 OFFCURVE",
"45 700 CURVE",
"183 700 LINE",
"186 690 LINE",
"173 609 OFFCURVE",
"162 257 OFFCURVE",
"175 86 CURVE",
"270 86 LINE SMOOTH",
"385 86 OFFCURVE",
"424 117 OFFCURVE",
"464 147 CURVE",
"483 137 LINE",
"440 0 LINE"
);
}
);
width = 501;
}
);
leftMetricsKey = H;
unicode = 004C;
},
{
color = 3;
glyphname = M;
lastChange = "2019-04-24 17:43:03 +0000";
layers = (
{
layerId = "DAB95E6E-43D9-4086-BFEC-49256C9AEEE3";
paths = (
{
closed = 1;
nodes = (
"839 0 LINE",
"711 0 LINE",
"692 143 OFFCURVE",
"674 305 OFFCURVE",
"667 448 CURVE",
"446 -5 LINE",
"401 -5 LINE",
"188 448 LINE",
"112 0 LINE",
"11 0 LINE",
"5 10 LINE",
"49 140 OFFCURVE",
"105 381 OFFCURVE",
"127 554 CURVE",
"77 680 LINE",
"77 700 LINE",
"211 700 LINE",
"286 523 OFFCURVE",
"369 346 OFFCURVE",
"466 183 CURVE",
"558 353 OFFCURVE",
"698 655 OFFCURVE",
"708 710 CURVE",
"760 710 LINE",
"754 555 OFFCURVE",
"798 184 OFFCURVE",
"848 10 CURVE"
);
}
);
width = 853;
}
);
unicode = 004D;
},
{
color = 3;
glyphname = N;
lastChange = "2019-04-24 17:42:53 +0000";
layers = (
{
layerId = "DAB95E6E-43D9-4086-BFEC-49256C9AEEE3";
paths = (
{
closed = 1;
nodes = (
"86 405 OFFCURVE",
"83 202 OFFCURVE",
"67 0 CURVE",
"180 0 LINE",
"144 547 LINE",
"284 380 OFFCURVE",
"552 75 OFFCURVE",
"583 33 CURVE SMOOTH",
"590 23 OFFCURVE",
"595 10 OFFCURVE",
"597 0 CURVE",
"652 0 LINE",
"643 202 OFFCURVE",
"642 498 OFFCURVE",
"661 700 CURVE",
"562 700 LINE",
"572 485 OFFCURVE",
"573 467 OFFCURVE",
"572 228 CURVE",
"434 383 OFFCURVE",
"301 537 OFFCURVE",
"173 700 CURVE",
"35 700 LINE",
"35 670 LINE",
"82 607 LINE"
);
}
);
width = 706;
}
);
unicode = 004E;
},
{
color = 3;
glyphname = O;
lastChange = "2019-04-24 17:42:53 +0000";
layers = (
{
layerId = "DAB95E6E-43D9-4086-BFEC-49256C9AEEE3";
paths = (
{
closed = 1;
nodes = (
"201 719 OFFCURVE",
"50 530 OFFCURVE",
"50 320 CURVE SMOOTH",
"50 150 OFFCURVE",
"170 -18 OFFCURVE",
"370 -18 CURVE SMOOTH",
"610 -18 OFFCURVE",
"760 190 OFFCURVE",
"760 380 CURVE SMOOTH",
"760 580 OFFCURVE",
"621 719 OFFCURVE",
"421 719 CURVE SMOOTH"
);
},
{
closed = 1;
nodes = (
"227 91 OFFCURVE",
"110 200 OFFCURVE",
"110 340 CURVE SMOOTH",
"110 500 OFFCURVE",
"231 612 OFFCURVE",
"401 612 CURVE SMOOTH",
"570 612 OFFCURVE",
"700 490 OFFCURVE",
"700 350 CURVE SMOOTH",
"700 192 OFFCURVE",
"577 91 OFFCURVE",
"397 91 CURVE SMOOTH"
);
}
);
width = 820;
}
);
unicode = 004F;
},
{
color = 3;
glyphname = P;
lastChange = "2019-04-24 17:43:03 +0000";
layers = (
{
background = {
components = (
{
name = I;
transform = "{1, 0, 0, 1, -63, 0}";
}
);
};
layerId = "DAB95E6E-43D9-4086-BFEC-49256C9AEEE3";
paths = (
{
closed = 1;
nodes = (
"240 710 CURVE SMOOTH",
"182 710 OFFCURVE",
"116 701 OFFCURVE",
"48 689 CURVE",
"63 540 OFFCURVE",
"63 221 OFFCURVE",
"45 3 CURVE",
"46 0 LINE",
"188 0 LINE",
"189 3 LINE",
"177 94 OFFCURVE",
"174 176 OFFCURVE",
"171 267 CURVE",
"352 273 OFFCURVE",
"517 355 OFFCURVE",
"517 504 CURVE SMOOTH",
"517 646 OFFCURVE",
"385 710 OFFCURVE"
);
},
{
closed = 1;
nodes = (
"163 650 LINE",
"341 666 OFFCURVE",
"397 577 OFFCURVE",
"397 490 CURVE SMOOTH",
"397 368 OFFCURVE",
"290 327 OFFCURVE",
"171 327 CURVE"
);
}
);
width = 537;
}
);
leftMetricsKey = H;
unicode = 0050;
},
{
color = 3;
glyphname = Q;
lastChange = "2019-04-24 17:43:03 +0000";
layers = (
{
components = (
{
name = O;
}
);
layerId = "DAB95E6E-43D9-4086-BFEC-49256C9AEEE3";
paths = (
{
closed = 1;
nodes = (
"702 -8 LINE",
"782 -10 LINE",
"785 -5 LINE",
"667 181 LINE",
"592 106 LINE"
);
}
);
width = 810;
}
);
leftMetricsKey = O;
unicode = 0051;
},
{
color = 3;
glyphname = R;
lastChange = "2019-04-24 17:43:03 +0000";
layers = (
{
layerId = "DAB95E6E-43D9-4086-BFEC-49256C9AEEE3";
paths = (
{
closed = 1;
nodes = (
"240 710 CURVE SMOOTH",
"182 710 OFFCURVE",
"116 702 OFFCURVE",
"48 700 CURVE",
"63 541 OFFCURVE",
"63 221 OFFCURVE",
"45 3 CURVE",
"46 0 LINE",
"188 0 LINE",
"189 3 LINE",
"177 94 OFFCURVE",
"174 226 OFFCURVE",
"171 317 CURVE",
"322 324 OFFCURVE",
"477 395 OFFCURVE",
"477 544 CURVE SMOOTH",
"477 656 OFFCURVE",
"355 710 OFFCURVE"
);
},
{
closed = 1;
nodes = (
"163 650 LINE",
"301 665 OFFCURVE",
"357 607 OFFCURVE",
"357 530 CURVE SMOOTH",
"357 418 OFFCURVE",
"260 377 OFFCURVE",
"171 377 CURVE"
);
},
{
closed = 1;
nodes = (
"377 -10 LINE",
"499 42 LINE",
"500 47 LINE",
"291 372 LINE",
"208 348 LINE"
);
}
);
width = 520;
}
);
leftMetricsKey = H;
unicode = 0052;
},
{
color = 3;
glyphname = S;
lastChange = "2019-04-24 17:43:03 +0000";
layers = (
{
layerId = "DAB95E6E-43D9-4086-BFEC-49256C9AEEE3";
paths = (
{
closed = 1;
nodes = (
"424 450 CURVE",
"480 457 LINE",
"472 555 OFFCURVE",
"476 632 OFFCURVE",
"486 682 CURVE",
"455 690 LINE",
"444 665 OFFCURVE",
"437 645 OFFCURVE",
"431 617 CURVE",
"397 670 OFFCURVE",
"336 710 OFFCURVE",
"271 710 CURVE SMOOTH",
"151 710 OFFCURVE",
"54 620 OFFCURVE",
"54 510 CURVE SMOOTH",
"54 410 OFFCURVE",
"108 353 OFFCURVE",
"210 314 CURVE SMOOTH",
"296 281 OFFCURVE",
"355 248 OFFCURVE",
"355 170 CURVE SMOOTH",
"355 96 OFFCURVE",
"306 60 OFFCURVE",
"257 60 CURVE SMOOTH",
"162 60 OFFCURVE",
"101 145 OFFCURVE",
"96 253 CURVE",
"36 244 LINE",
"50 182 OFFCURVE",
"55 103 OFFCURVE",
"35 -5 CURVE",
"63 -18 LINE",
"112 58 LINE",
"144 30 OFFCURVE",
"199 -10 OFFCURVE",
"267 -10 CURVE SMOOTH",
"377 -10 OFFCURVE",
"470 92 OFFCURVE",
"470 202 CURVE SMOOTH",
"470 322 OFFCURVE",
"385 367 OFFCURVE",
"296 409 CURVE SMOOTH",
"226 442 OFFCURVE",
"159 480 OFFCURVE",
"159 550 CURVE SMOOTH",
"159 615 OFFCURVE",
"210 650 OFFCURVE",
"274 650 CURVE SMOOTH",
"339 650 OFFCURVE",
"402 599 OFFCURVE"
);
}
);
width = 506;
}
);
unicode = 0053;
},
{
color = 3;
glyphname = T;
lastChange = "2019-04-24 17:42:53 +0000";
layers = (
{
layerId = "DAB95E6E-43D9-4086-BFEC-49256C9AEEE3";
paths = (
{
closed = 1;
nodes = (
"324 609 OFFCURVE",
"494 611 OFFCURVE",
"561 607 CURVE",
"594 700 LINE",
"588 710 LINE",
"494 700 OFFCURVE",
"405 697 OFFCURVE",
"302 697 CURVE SMOOTH",
"225 697 OFFCURVE",
"150 698 OFFCURVE",
"55 700 CURVE",
"10 610 LINE",
"22 597 LINE",
"109 611 OFFCURVE",
"232 609 OFFCURVE",
"274 609 CURVE SMOOTH"
);
},
{
closed = 1;
nodes = (
"372 3 LINE",
"344 104 OFFCURVE",
"343 590 OFFCURVE",
"367 687 CURVE",
"366 690 LINE",
"227 690 LINE",
"226 687 LINE",
"251 590 OFFCURVE",
"242 104 OFFCURVE",
"224 3 CURVE",
"225 0 LINE",
"371 0 LINE"
);
}
);
width = 604;
}
);
unicode = 0054;
},
{
color = 3;
glyphname = U;
lastChange = "2019-04-24 17:42:53 +0000";
layers = (
{
layerId = "DAB95E6E-43D9-4086-BFEC-49256C9AEEE3";
paths = (
{
closed = 1;
nodes = (
"487 0 LINE",
"506 233 OFFCURVE",
"505 462 OFFCURVE",
"492 700 CURVE",
"635 700 LINE",
"638 690 LINE",
"586 530 OFFCURVE",
"603 161 OFFCURVE",
"643 10 CURVE",
"640 0 LINE"
);
},
{
closed = 1;
nodes = (
"502 114 LINE",
"468 63 OFFCURVE",
"369 -11 OFFCURVE",
"276 -11 CURVE SMOOTH",
"145 -11 OFFCURVE",
"59 57 OFFCURVE",
"59 232 CURVE SMOOTH",
"59 370 OFFCURVE",
"52 593 OFFCURVE",
"45 700 CURVE",
"181 700 LINE",
"184 690 LINE",
"171 586 OFFCURVE",
"169 407 OFFCURVE",
"169 315 CURVE SMOOTH",
"169 165 OFFCURVE",
"236 90 OFFCURVE",
"336 90 CURVE SMOOTH",
"436 90 OFFCURVE",
"487 148 OFFCURVE",
"502 251 CURVE"
);
}
);
width = 688;
}
);
leftMetricsKey = H;
rightMetricsKey = H;
unicode = 0055;
},
{
color = 3;
glyphname = Udieresis;
lastChange = "2019-04-24 17:43:03 +0000";
layers = (
{
components = (
{
name = U;
}
);
layerId = "DAB95E6E-43D9-4086-BFEC-49256C9AEEE3";
paths = (
{
closed = 1;
nodes = (
"307 710 LINE",
"298 611 OFFCURVE",
"291 520 OFFCURVE",
"286 421 CURVE",
"256 411 LINE",
"236 700 LINE"
);
},
{
closed = 1;
nodes = (
"435 710 LINE",
"425 607 OFFCURVE",
"418 512 OFFCURVE",
"411 409 CURVE",
"381 399 LINE",
"356 700 LINE"
);
}
);
width = 688;
}
);
unicode = 00DC;
},
{
color = 3;
glyphname = V;
lastChange = "2019-04-24 17:43:03 +0000";
layers = (
{
layerId = "DAB95E6E-43D9-4086-BFEC-49256C9AEEE3";
paths = (
{
closed = 1;
nodes = (
"372 181 LINE",
"516 545 LINE SMOOTH",
"535 593 OFFCURVE",
"537 611 OFFCURVE",
"538 700 CURVE",
"679 700 LINE",
"679 695 LINE",
"649 652 OFFCURVE",
"593 554 OFFCURVE",
"513 362 CURVE SMOOTH",
"468 254 OFFCURVE",
"396 70 OFFCURVE",
"371 -10 CURVE",
"327 -10 LINE",
"232 225 OFFCURVE",
"123 463 OFFCURVE",
"10 680 CURVE",
"14 700 LINE",
"159 700 LINE",
"212 554 OFFCURVE",
"334 276 OFFCURVE",
"384 181 CURVE"
);
}
);
width = 689;
}
);
unicode = 0056;
},
{
color = 3;
glyphname = W;
lastChange = "2019-04-24 17:43:03 +0000";
layers = (
{
layerId = "DAB95E6E-43D9-4086-BFEC-49256C9AEEE3";
paths = (
{
closed = 1;
nodes = (
"447 516 LINE",
"361 358 OFFCURVE",
"276 171 OFFCURVE",
"194 -10 CURVE",
"151 0 LINE",
"137 205 OFFCURVE",
"93 495 OFFCURVE",
"20 690 CURVE",
"20 700 LINE",
"190 700 LINE",
"208 549 OFFCURVE",
"229 379 OFFCURVE",
"258 233 CURVE",
"243 233 LINE",
"454 710 LINE",
"492 700 LINE",
"536 551 OFFCURVE",
"631 375 OFFCURVE",
"713 231 CURVE",
"699 231 LINE",
"719 367 OFFCURVE",
"750 600 OFFCURVE",
"765 712 CURVE",
"854 700 LINE",
"808 530 OFFCURVE",
"758 242 OFFCURVE",
"746 -10 CURVE",
"711 -10 LINE",
"616 146 OFFCURVE",
"520 335 OFFCURVE",
"433 512 CURVE"
);
}
);
width = 874;
}
);
unicode = 0057;
},
{
color = 3;
glyphname = X;
lastChange = "2019-04-24 17:43:03 +0000";
layers = (
{
layerId = "DAB95E6E-43D9-4086-BFEC-49256C9AEEE3";
paths = (
{
closed = 1;
nodes = (
"311 284 LINE",
"443 0 LINE",
"581 0 LINE",
"584 19 LINE",
"512 136 OFFCURVE",
"442 255 OFFCURVE",
"376 372 CURVE",
"374 356 LINE",
"457 473 OFFCURVE",
"528 576 OFFCURVE",
"622 679 CURVE",
"622 700 LINE",
"505 700 LINE",
"346 423 LINE",
"357 420 LINE",
"225 700 LINE",
"71 700 LINE",
"68 683 LINE",
"153 577 OFFCURVE",
"225 446 OFFCURVE",
"295 314 CURVE",
"297 328 LINE",
"37 13 LINE",
"37 0 LINE",
"165 0 LINE",
"327 290 LINE"
);
}
);
width = 645;
}
);
unicode = 0058;
},
{
color = 3;
glyphname = Y;
lastChange = "2019-04-24 17:42:53 +0000";
layers = (
{
layerId = "DAB95E6E-43D9-4086-BFEC-49256C9AEEE3";
paths = (
{
closed = 1;
nodes = (
"314 350 LINE",
"406 521 OFFCURVE",
"456 642 OFFCURVE",
"473 700 CURVE",
"591 700 LINE",
"591 697 LINE",
"547 629 OFFCURVE",
"451 495 OFFCURVE",
"351 307 CURVE",
"244 307 LINE",
"206 386 OFFCURVE",
"72 600 OFFCURVE",
"5 696 CURVE",
"6 700 LINE",
"157 700 LINE",
"181 645 OFFCURVE",
"241 524 OFFCURVE",
"328 350 CURVE"
);
},
{
closed = 1;
nodes = (
"227 0 LINE",
"226 3 LINE",
"234 50 OFFCURVE",
"241 182 OFFCURVE",
"243 320 CURVE",
"352 320 LINE",
"354 182 OFFCURVE",
"361 50 OFFCURVE",
"374 3 CURVE",
"373 0 LINE"
);
}
);
width = 596;
}
);
unicode = 0059;
},
{
color = 3;
glyphname = Z;
lastChange = "2019-04-24 17:43:03 +0000";
layers = (
{
layerId = "DAB95E6E-43D9-4086-BFEC-49256C9AEEE3";
paths = (
{
closed = 1;
nodes = (
"22 566 CURVE",
"12 572 LINE",
"21 622 OFFCURVE",
"37 662 OFFCURVE",
"62 710 CURVE",
"255 689 OFFCURVE",
"492 692 OFFCURVE",
"577 710 CURVE",
"584 693 LINE",
"429 504 OFFCURVE",
"294 307 OFFCURVE",
"154 99 CURVE",
"155 107 LINE",
"259 106 OFFCURVE",
"492 119 OFFCURVE",
"568 138 CURVE",
"584 130 LINE",
"570 84 OFFCURVE",
"554 47 OFFCURVE",
"532 -6 CURVE",
"349 12 OFFCURVE",
"192 14 OFFCURVE",
"21 -10 CURVE",
"5 8 LINE",
"420 599 LINE",
"421 590 LINE",
"293 595 OFFCURVE",
"82 587 OFFCURVE"
);
}
);
width = 601;
}
);
unicode = 005A;
},
{
color = 4;
glyphname = a;
lastChange = "2019-04-24 17:43:03 +0000";
layers = (
{
guideLines = (
{
angle = 30;
position = "{43, 430}";
},
{
angle = 35;
position = "{372, -10}";
},
{
angle = 30;
position = "{40, 50}";
},
{
angle = 25;
position = "{419, 430}";
},
{
angle = 35;
position = "{296, 65}";
}
);
layerId = "DAB95E6E-43D9-4086-BFEC-49256C9AEEE3";
paths = (
{
closed = 1;
nodes = (
"372 -10 LINE",
"455 48 LINE",
"455 51 LINE",
"412 101 LINE",
"410 209 OFFCURVE",
"413 322 OFFCURVE",
"419 430 CURVE",
"371 467 OFFCURVE",
"271 515 OFFCURVE",
"199 520 CURVE",
"43 430 LINE",
"49 342 OFFCURVE",
"49 167 OFFCURVE",
"40 50 CURVE",
"89 33 OFFCURVE",
"144 6 OFFCURVE",
"189 -10 CURVE",
"296 65 LINE"
);
},
{
closed = 1;
nodes = (
"317 101 LINE",
"301 90 LINE",
"203 91 OFFCURVE",
"143 96 OFFCURVE",
"143 110 CURVE SMOOTH",
"143 430 LINE",
"197 425 OFFCURVE",
"266 404 OFFCURVE",
"317 382 CURVE"
);
}
);
width = 470;
}
);
unicode = 0061;
},
{
color = 4;
glyphname = b;
lastChange = "2019-04-24 17:43:03 +0000";
layers = (
{
guideLines = (
{
angle = 30;
position = "{44, 50}";
},
{
angle = 35;
position = "{269, -10}";
},
{
angle = 30;
position = "{443, 430}";
}
);
layerId = "DAB95E6E-43D9-4086-BFEC-49256C9AEEE3";
paths = (
{
closed = 1;
nodes = (
"396 465 OFFCURVE",
"305 509 OFFCURVE",
"233 520 CURVE",
"149 461 LINE",
"157 559 OFFCURVE",
"160 600 OFFCURVE",
"175 700 CURVE",
"167 707 LINE",
"30 657 LINE",
"39 569 OFFCURVE",
"46 247 OFFCURVE",
"44 50 CURVE",
"94 34 OFFCURVE",
"221 8 OFFCURVE",
"269 -10 CURVE",
"438 108 LINE",
"434 216 OFFCURVE",
"439 322 OFFCURVE",
"443 430 CURVE"
);
},
{
closed = 1;
nodes = (
"193 94 OFFCURVE",
"145 94 OFFCURVE",
"144 108 CURVE SMOOTH",
"138 220 OFFCURVE",
"136 329 OFFCURVE",
"138 416 CURVE",
"158 430 LINE",
"218 426 OFFCURVE",
"296 398 OFFCURVE",
"341 371 CURVE",
"341 90 LINE"
);
}
);
width = 483;
}
);
unicode = 0062;
},
{
color = 4;
glyphname = c;
lastChange = "2019-04-24 17:43:03 +0000";
layers = (
{
guideLines = (
{
angle = 30;
position = "{130, 110}";
},
{
angle = 35;
position = "{38, 430}";
}
);
layerId = "DAB95E6E-43D9-4086-BFEC-49256C9AEEE3";
paths = (
{
closed = 1;
nodes = (
"195 520 LINE",
"220 520 OFFCURVE",
"251 518 OFFCURVE",
"286 510 CURVE",
"286 413 LINE",
"280 407 LINE",
"222 423 OFFCURVE",
"186 430 OFFCURVE",
"128 430 CURVE",
"124 323 OFFCURVE",
"126 218 OFFCURVE",
"132 111 CURVE",
"287 90 LINE",
"287 80 LINE",
"218 -10 LINE",
"149 13 OFFCURVE",
"101 34 OFFCURVE",
"32 53 CURVE",
"28 173 OFFCURVE",
"31 298 OFFCURVE",
"38 430 CURVE"
);
}
);
width = 307;
}
);
unicode = 0063;
},
{
color = 4;
glyphname = c_h;
lastChange = "2019-04-24 17:43:03 +0000";
layers = (
{
layerId = "DAB95E6E-43D9-4086-BFEC-49256C9AEEE3";
paths = (
{
closed = 1;
nodes = (
"572 171 OFFCURVE",
"568 44 OFFCURVE",
"509 -100 CURVE",
"519 -107 LINE",
"581 -58 OFFCURVE",
"627 -7 OFFCURVE",
"666 44 CURVE",
"654 163 OFFCURVE",
"661 339 OFFCURVE",
"665 430 CURVE",
"619 466 OFFCURVE",
"569 496 OFFCURVE",
"513 520 CURVE",
"403 457 LINE",
"411 720 LINE",
"391 730 LINE",
"276 653 LINE",
"296 472 OFFCURVE",
"296 241 OFFCURVE",
"285 60 CURVE",
"351 -10 LINE",
"461 67 LINE",
"461 90 LINE",
"434 97 OFFCURVE",
"395 115 OFFCURVE",
"395 141 CURVE SMOOTH",
"395 424 LINE",
"401 430 LINE",
"471 421 OFFCURVE",
"526 400 OFFCURVE",
"569 375 CURVE"
);
},
{
closed = 1;
nodes = (
"31 268 OFFCURVE",
"28 173 OFFCURVE",
"32 53 CURVE",
"76 29 OFFCURVE",
"87 22 OFFCURVE",
"138 -10 CURVE",
"300 66 LINE",
"300 90 LINE",
"132 101 LINE",
"126 208 OFFCURVE",
"124 298 OFFCURVE",
"128 405 CURVE",
"186 405 OFFCURVE",
"265 383 OFFCURVE",
"323 367 CURVE",
"329 373 LINE",
"329 450 LINE",
"294 458 OFFCURVE",
"180 490 OFFCURVE",
"155 490 CURVE",
"38 400 LINE"
);
}
);
width = 706;
}
);
leftMetricsKey = c;
rightMetricsKey = h;
},
{
color = 4;
glyphname = c_k;
lastChange = "2019-04-24 17:43:03 +0000";
layers = (
{
components = (
{
name = k;
transform = "{1, 0, 0, 1, 236, 0}";
}
);
layerId = "DAB95E6E-43D9-4086-BFEC-49256C9AEEE3";
paths = (
{
closed = 1;
nodes = (
"31 298 OFFCURVE",
"28 173 OFFCURVE",
"32 53 CURVE",
"101 34 OFFCURVE",
"143 13 OFFCURVE",
"212 -10 CURVE",
"299 68 LINE",
"299 90 LINE",
"132 111 LINE",
"126 218 OFFCURVE",
"124 323 OFFCURVE",
"128 430 CURVE",
"146 430 OFFCURVE",
"232 400 OFFCURVE",
"290 377 CURVE",
"296 383 LINE",
"286 460 LINE",
"252 479 OFFCURVE",
"177 510 OFFCURVE",
"152 520 CURVE",
"38 430 LINE"
);
}
);
width = 708;
}
);
leftMetricsKey = c;
rightMetricsKey = k;
},
{
color = 4;
glyphname = d;
lastChange = "2019-04-24 17:43:03 +0000";
layers = (
{
guideLines = (
{
angle = 35;
position = "{113, 760}";
},
{
angle = 45;
position = "{455, 129}";
},
{
angle = 35;
position = "{357, 410}";
},
{
angle = 35;
position = "{57, 430}";
}
);
layerId = "DAB95E6E-43D9-4086-BFEC-49256C9AEEE3";
paths = (
{
closed = 1;
nodes = (
"373 37 OFFCURVE",
"415 84 OFFCURVE",
"455 129 CURVE",
"452 237 OFFCURVE",
"449 369 OFFCURVE",
"453 477 CURVE",
"334 550 OFFCURVE",
"230 628 OFFCURVE",
"133 710 CURVE",
"58 660 LINE",
"95 607 OFFCURVE",
"166 547 OFFCURVE",
"194 526 CURVE",
"57 430 LINE",
"65 342 OFFCURVE",
"66 207 OFFCURVE",
"57 90 CURVE",
"107 67 OFFCURVE",
"267 6 OFFCURVE",
"315 -10 CURVE"
);
},
{
closed = 1;
nodes = (
"357 90 LINE",
"219 113 OFFCURVE",
"159 141 OFFCURVE",
"159 159 CURVE SMOOTH",
"159 410 LINE SMOOTH",
"159 442 OFFCURVE",
"207 483 OFFCURVE",
"228 501 CURVE",
"357 410 LINE"
);
}
);
width = 495;
}
);
unicode = 0064;
},
{
color = 4;
glyphname = e;
lastChange = "2019-04-24 17:43:03 +0000";
layers = (
{
background = {
components = (
{
name = a;
transform = "{1, 0, 0, 1, 31, 0}";
}
);
};
guideLines = (
{
angle = 30;
position = "{40, 430}";
}
);
layerId = "DAB95E6E-43D9-4086-BFEC-49256C9AEEE3";
paths = (
{
closed = 1;
nodes = (
"196 520 LINE",
"249 479 OFFCURVE",
"314 444 OFFCURVE",
"371 409 CURVE",
"371 391 LINE",
"157 178 LINE",
"157 127 OFFCURVE",
"171 105 OFFCURVE",
"333 90 CURVE",
"333 82 LINE",
"240 -11 LINE",
"183 11 OFFCURVE",
"109 30 OFFCURVE",
"51 50 CURVE",
"60 136 OFFCURVE",
"56 331 OFFCURVE",
"40 430 CURVE"
);
},
{
closed = 1;
nodes = (
"125 355 OFFCURVE",
"131 278 OFFCURVE",
"137 203 CURVE",
"294 363 LINE",
"294 369 LINE",
"117 430 LINE"
);
}
);
width = 381;
}
);
unicode = 0065;
},
{
color = 4;
glyphname = f;
lastChange = "2019-04-24 17:43:03 +0000";
layers = (
{
guideLines = (
{
angle = 35;
position = "{256, 67}";
},
{
angle = 30;
position = "{168, 710}";
}
);
layerId = "DAB95E6E-43D9-4086-BFEC-49256C9AEEE3";
paths = (
{
closed = 1;
nodes = (
"118 23 OFFCURVE",
"91 57 OFFCURVE",
"61 90 CURVE",
"67 153 OFFCURVE",
"72 292 OFFCURVE",
"67 350 CURVE",
"10 350 LINE",
"10 364 LINE",
"67 430 LINE",
"68 503 OFFCURVE",
"64 575 OFFCURVE",
"57 646 CURVE",
"168 710 LINE",
"203 693 OFFCURVE",
"232 672 OFFCURVE",
"253 649 CURVE",
"253 569 LINE",
"238 559 LINE",
"210 586 OFFCURVE",
"178 606 OFFCURVE",
"148 621 CURVE",
"154 557 OFFCURVE",
"154 494 OFFCURVE",
"154 430 CURVE",
"250 430 LINE",
"250 350 LINE",
"161 350 LINE",
"161 276 OFFCURVE",
"161 202 OFFCURVE",
"156 128 CURVE",
"256 90 LINE",
"256 67 LINE",
"146 -10 LINE"
);
}
);
width = 276;
}
);
unicode = 0066;
},
{
color = 4;
glyphname = f_f;
lastChange = "2019-04-24 17:43:03 +0000";
layers = (
{
layerId = "DAB95E6E-43D9-4086-BFEC-49256C9AEEE3";
paths = (
{
closed = 1;
nodes = (
"130 -10 LINE",
"41 40 LINE",
"41 43 LINE",
"49 53 OFFCURVE",
"63 72 OFFCURVE",
"64 87 CURVE SMOOTH",
"68 165 OFFCURVE",
"71 301 OFFCURVE",
"67 350 CURVE",
"10 350 LINE",
"10 364 LINE",
"67 430 LINE",
"68 503 OFFCURVE",
"64 575 OFFCURVE",
"57 646 CURVE",
"168 710 LINE",
"205 703 OFFCURVE",
"241 691 OFFCURVE",
"276 674 CURVE",
"240 599 LINE",
"232 597 LINE",
"204 610 OFFCURVE",
"176 623 OFFCURVE",
"148 626 CURVE",
"154 562 OFFCURVE",
"154 494 OFFCURVE",
"154 430 CURVE",
"363 430 LINE",
"363 359 LINE",
"161 350 LINE",
"161 276 OFFCURVE",
"161 202 OFFCURVE",
"156 98 CURVE",
"206 76 LINE",
"206 67 LINE",
"134 -10 LINE"
);
},
{
closed = 1;
nodes = (
"370 -10 LINE",
"281 40 LINE",
"281 43 LINE",
"289 53 OFFCURVE",
"303 72 OFFCURVE",
"304 87 CURVE SMOOTH",
"309 165 OFFCURVE",
"311 310 OFFCURVE",
"307 359 CURVE",
"307 430 LINE",
"308 503 OFFCURVE",
"304 568 OFFCURVE",
"297 639 CURVE",
"402 710 LINE",
"439 703 OFFCURVE",
"491 687 OFFCURVE",
"526 670 CURVE",
"494 594 LINE",
"486 592 LINE",
"458 605 OFFCURVE",
"416 623 OFFCURVE",
"388 626 CURVE",
"394 562 OFFCURVE",
"394 494 OFFCURVE",
"394 430 CURVE",
"499 430 LINE",
"499 350 LINE",
"401 350 LINE",
"401 276 OFFCURVE",
"401 202 OFFCURVE",
"396 98 CURVE",
"446 76 LINE",
"446 67 LINE",
"374 -10 LINE"
);
}
);
width = 546;
}
);
leftMetricsKey = f;
rightMetricsKey = f;
},
{
color = 4;
glyphname = g;
lastChange = "2019-04-24 17:43:03 +0000";
layers = (
{
background = {
components = (
{
name = a;
}
);
};
guideLines = (
{
angle = 45;
position = "{172, 520}";
},
{
angle = 30;
position = "{407, 430}";
},
{
angle = 45;
position = "{183, -30}";
}
);
layerId = "DAB95E6E-43D9-4086-BFEC-49256C9AEEE3";
paths = (
{
closed = 1;
nodes = (
"143 91 LINE",
"307 91 LINE",
"307 372 LINE",
"260 396 OFFCURVE",
"198 416 OFFCURVE",
"143 430 CURVE"
);
},
{
closed = 1;
nodes = (
"113 -100 LINE",
"183 -30 LINE",
"215 -67 OFFCURVE",
"261 -103 OFFCURVE",
"312 -122 CURVE",
"312 55 LINE",
"296 65 LINE",
"189 -10 LINE",
"45 49 LINE",
"56 147 OFFCURVE",
"53 293 OFFCURVE",
"40 388 CURVE",
"172 520 LINE",
"265 501 OFFCURVE",
"344 466 OFFCURVE",
"407 430 CURVE",
"397 313 OFFCURVE",
"403 -24 OFFCURVE",
"414 -122 CURVE",
"354 -157 OFFCURVE",
"308 -178 OFFCURVE",
"246 -200 CURVE",
"196 -175 OFFCURVE",
"163 -155 OFFCURVE",
"113 -110 CURVE"
);
}
);
width = 444;
}
);
leftMetricsKey = a;
rightMetricsKey = o;
unicode = 0067;
},
{
color = 4;
glyphname = h;
lastChange = "2019-04-24 17:43:03 +0000";
layers = (
{
guideLines = (
{
angle = 30;
position = "{462, 430}";
}
);
layerId = "DAB95E6E-43D9-4086-BFEC-49256C9AEEE3";
paths = (
{
closed = 1;
nodes = (
"369 101 OFFCURVE",
"365 -26 OFFCURVE",
"306 -170 CURVE",
"316 -177 LINE",
"378 -128 OFFCURVE",
"424 -77 OFFCURVE",
"463 -26 CURVE",
"451 93 OFFCURVE",
"458 339 OFFCURVE",
"462 430 CURVE",
"416 466 OFFCURVE",
"346 496 OFFCURVE",
"280 520 CURVE",
"170 457 LINE",
"178 720 LINE",
"158 730 LINE",
"43 653 LINE",
"63 472 OFFCURVE",
"63 241 OFFCURVE",
"52 60 CURVE",
"118 -10 LINE",
"228 67 LINE",
"228 90 LINE",
"201 97 OFFCURVE",
"162 115 OFFCURVE",
"162 141 CURVE SMOOTH",
"162 424 LINE",
"168 430 LINE",
"238 421 OFFCURVE",
"323 400 OFFCURVE",
"366 375 CURVE"
);
}
);
width = 503;
}
);
unicode = 0068;
},
{
color = 4;
glyphname = i;
lastChange = "2019-04-24 17:43:03 +0000";
layers = (
{
layerId = "DAB95E6E-43D9-4086-BFEC-49256C9AEEE3";
paths = (
{
closed = 1;
nodes = (
"102 520 LINE",
"92 520 LINE",
"15 443 LINE",
"15 430 LINE",
"54 417 OFFCURVE",
"64 394 OFFCURVE",
"65 373 CURVE SMOOTH",
"68 303 OFFCURVE",
"67 141 OFFCURVE",
"57 60 CURVE",
"123 -10 LINE",
"233 67 LINE",
"233 90 LINE",
"196 102 OFFCURVE",
"161 115 OFFCURVE",
"161 141 CURVE SMOOTH",
"161 266 OFFCURVE",
"170 414 OFFCURVE",
"182 465 CURVE"
);
},
{
closed = 1;
nodes = (
"29 574 LINE",
"29 584 LINE",
"157 700 LINE",
"219 680 LINE",
"219 670 LINE",
"94 557 LINE"
);
}
);
width = 248;
}
);
leftMetricsKey = n;
rightMetricsKey = n;
unicode = 0069;
},
{
color = 4;
glyphname = j;
lastChange = "2019-04-24 17:42:53 +0000";
layers = (
{
guideLines = (
{
angle = 225;
position = "{59, -115}";
},
{
angle = 225;
position = "{54, 482}";
}
);
layerId = "DAB95E6E-43D9-4086-BFEC-49256C9AEEE3";
paths = (
{
closed = 1;
nodes = (
"219 677 LINE",
"217 667 LINE",
"81 551 LINE",
"39 571 LINE",
"39 579 LINE",
"149 700 LINE"
);
},
{
closed = 1;
nodes = (
"102 520 LINE",
"92 520 LINE",
"15 443 LINE",
"15 430 LINE",
"54 417 OFFCURVE",
"64 394 OFFCURVE",
"65 373 CURVE SMOOTH",
"76 158 OFFCURVE",
"94 38 OFFCURVE",
"35 -103 CURVE",
"59 -115 LINE",
"112 -67 OFFCURVE",
"150 -29 OFFCURVE",
"179 21 CURVE",
"173 56 OFFCURVE",
"171 115 OFFCURVE",
"171 181 CURVE SMOOTH",
"171 266 OFFCURVE",
"179 414 OFFCURVE",
"182 465 CURVE"
);
}
);
width = 239;
}
);
unicode = 006A;
},
{
color = 4;
glyphname = k;
lastChange = "2019-04-24 17:43:03 +0000";
layers = (
{
guideLines = (
{
angle = 15;
position = "{283, 520}";
}
);
layerId = "DAB95E6E-43D9-4086-BFEC-49256C9AEEE3";
paths = (
{
closed = 1;
nodes = (
"401 174 OFFCURVE",
"404 248 OFFCURVE",
"414 298 CURVE",
"406 306 LINE",
"366 305 OFFCURVE",
"316 311 OFFCURVE",
"268 325 CURVE",
"339 352 OFFCURVE",
"394 390 OFFCURVE",
"419 420 CURVE",
"419 430 LINE",
"381 462 OFFCURVE",
"335 497 OFFCURVE",
"283 520 CURVE",
"159 487 LINE",
"163 585 OFFCURVE",
"167 618 OFFCURVE",
"185 718 CURVE",
"174 730 LINE",
"40 675 LINE",
"47 587 OFFCURVE",
"56 257 OFFCURVE",
"54 60 CURVE",
"139 -10 LINE",
"219 70 LINE",
"219 80 LINE",
"154 136 LINE",
"151 175 OFFCURVE",
"150 228 OFFCURVE",
"150 282 CURVE",
"200 280 OFFCURVE",
"309 271 OFFCURVE",
"309 232 CURVE SMOOTH",
"309 182 OFFCURVE",
"308 141 OFFCURVE",
"301 60 CURVE",
"397 -10 LINE",
"467 67 LINE",
"467 90 LINE",
"430 102 OFFCURVE",
"401 115 OFFCURVE",
"401 141 CURVE SMOOTH"
);
},
{
closed = 1;
nodes = (
"218 458 OFFCURVE",
"287 413 OFFCURVE",
"311 384 CURVE",
"276 358 OFFCURVE",
"235 340 OFFCURVE",
"151 332 CURVE",
"151 381 OFFCURVE",
"152 420 OFFCURVE",
"152 456 CURVE",
"188 462 LINE"
);
}
);
width = 472;
}
);
unicode = 006B;
},
{
color = 4;
glyphname = l;
lastChange = "2019-04-24 17:43:03 +0000";
layers = (
{
layerId = "DAB95E6E-43D9-4086-BFEC-49256C9AEEE3";
paths = (
{
closed = 1;
nodes = (
"136 730 LINE",
"30 680 LINE",
"48 592 OFFCURVE",
"56 257 OFFCURVE",
"44 60 CURVE",
"127 -10 LINE",
"207 70 LINE",
"207 80 LINE",
"142 136 LINE",
"150 378 OFFCURVE",
"153 561 OFFCURVE",
"143 723 CURVE"
);
}
);
width = 222;
}
);
unicode = 006C;
},
{
color = 4;
glyphname = m;
lastChange = "2019-04-24 17:43:03 +0000";
layers = (
{
guideLines = (
{
angle = 30;
position = "{295, 520}";
},
{
angle = 30;
position = "{651, 465}";
}
);
layerId = "DAB95E6E-43D9-4086-BFEC-49256C9AEEE3";
paths = (
{
closed = 1;
nodes = (
"303 314 OFFCURVE",
"303 156 OFFCURVE",
"296 60 CURVE",
"381 -10 LINE",
"461 67 LINE",
"461 90 LINE",
"429 98 OFFCURVE",
"403 113 OFFCURVE",
"401 139 CURVE SMOOTH",
"395 221 OFFCURVE",
"403 365 OFFCURVE",
"416 424 CURVE",
"427 430 LINE",
"449 444 LINE",
"406 473 OFFCURVE",
"336 507 OFFCURVE",
"295 520 CURVE",
"175 451 LINE",
"102 520 LINE",
"92 520 LINE",
"15 443 LINE",
"15 430 LINE",
"54 407 OFFCURVE",
"64 394 OFFCURVE",
"65 373 CURVE SMOOTH",
"69 303 OFFCURVE",
"67 141 OFFCURVE",
"57 60 CURVE",
"157 136 LINE",
"167 424 LINE",
"173 430 LINE",
"223 426 OFFCURVE",
"259 419 OFFCURVE",
"302 402 CURVE"
);
},
{
closed = 1;
nodes = (
"57 60 LINE",
"142 -10 LINE",
"222 70 LINE",
"222 80 LINE",
"157 136 LINE"
);
},
{
closed = 1;
nodes = (
"454 424 OFFCURVE",
"495 417 OFFCURVE",
"542 402 CURVE",
"543 314 OFFCURVE",
"543 156 OFFCURVE",
"536 60 CURVE",
"621 -10 LINE",
"701 70 LINE",
"701 80 LINE",
"634 126 LINE",
"630 225 OFFCURVE",
"646 425 OFFCURVE",
"651 465 CURVE",
"620 489 OFFCURVE",
"561 510 OFFCURVE",
"515 520 CURVE",
"416 431 LINE"
);
}
);
width = 716;
}
);
leftMetricsKey = n;
rightMetricsKey = n;
unicode = 006D;
},
{
color = 4;
glyphname = n;
lastChange = "2019-04-24 17:43:03 +0000";
layers = (
{
background = {
components = (
{
name = a;
transform = "{1, 0, 0, 1, 44, 0}";
}
);
};
guideLines = (
{
angle = 45;
position = "{331, 60}";
},
{
angle = 30;
position = "{442, 430}";
},
{
angle = 25;
position = "{52, 60}";
},
{
angle = 30;
position = "{290, 520}";
},
{
angle = 45;
position = "{416, -10}";
},
{
angle = 45;
position = "{87, 520}";
},
{
angle = 35;
position = "{118, -10}";
}
);
layerId = "DAB95E6E-43D9-4086-BFEC-49256C9AEEE3";
paths = (
{
closed = 1;
nodes = (
"336 282 OFFCURVE",
"336 156 OFFCURVE",
"329 60 CURVE",
"413 -10 LINE",
"493 70 LINE",
"493 80 LINE",
"428 136 LINE",
"429 175 OFFCURVE",
"434 339 OFFCURVE",
"439 430 CURVE",
"393 466 OFFCURVE",
"333 506 OFFCURVE",
"290 520 CURVE",
"173 453 LINE",
"97 520 LINE",
"87 520 LINE",
"15 443 LINE",
"15 430 LINE",
"54 407 OFFCURVE",
"64 394 OFFCURVE",
"65 373 CURVE SMOOTH",
"68 303 OFFCURVE",
"67 141 OFFCURVE",
"57 60 CURVE",
"118 -10 LINE",
"228 67 LINE",
"228 90 LINE",
"191 96 OFFCURVE",
"162 115 OFFCURVE",
"162 141 CURVE SMOOTH",
"162 424 LINE",
"168 430 LINE",
"238 416 OFFCURVE",
"292 396 OFFCURVE",
"335 370 CURVE"
);
}
);
width = 508;
}
);
unicode = 006E;
},
{
color = 4;
glyphname = o;
lastChange = "2019-04-24 17:43:03 +0000";
layers = (
{
guideLines = (
{
angle = 30;
position = "{387, 60}";
},
{
angle = 30;
position = "{203, 520}";
},
{
angle = 25;
position = "{410, 430}";
}
);
layerId = "DAB95E6E-43D9-4086-BFEC-49256C9AEEE3";
paths = (
{
closed = 1;
nodes = (
"395 65 LINE",
"393 173 OFFCURVE",
"401 322 OFFCURVE",
"410 430 CURVE",
"349 475 OFFCURVE",
"275 504 OFFCURVE",
"203 520 CURVE",
"30 420 LINE",
"37 332 OFFCURVE",
"38 177 OFFCURVE",
"30 60 CURVE",
"80 46 OFFCURVE",
"217 2 OFFCURVE",
"265 -10 CURVE"
);
},
{
closed = 1;
nodes = (
"304 90 LINE",
"156 105 OFFCURVE",
"131 112 OFFCURVE",
"131 124 CURVE SMOOTH",
"131 430 LINE",
"185 425 OFFCURVE",
"257 404 OFFCURVE",
"304 381 CURVE"
);
}
);
width = 440;
}
);
unicode = 006F;
},
{
color = 4;
glyphname = p;
lastChange = "2019-04-24 17:43:03 +0000";
layers = (
{
background = {
components = (
{
name = n;
transform = "{1, 0, 0, 1, -12, 0}";
}
);
};
layerId = "DAB95E6E-43D9-4086-BFEC-49256C9AEEE3";
paths = (
{
closed = 1;
nodes = (
"387 485 OFFCURVE",
"309 504 OFFCURVE",
"237 520 CURVE",
"175 457 LINE",
"82 520 LINE",
"72 520 LINE",
"10 433 LINE",
"10 430 LINE",
"72 385 LINE",
"72 257 OFFCURVE",
"54 -61 OFFCURVE",
"44 -170 CURVE",
"89 -174 OFFCURVE",
"122 -174 OFFCURVE",
"157 -170 CURVE",
"147 23 LINE",
"218 8 OFFCURVE",
"307 -7 OFFCURVE",
"339 -10 CURVE",
"436 110 LINE",
"431 218 OFFCURVE",
"434 352 OFFCURVE",
"438 460 CURVE"
);
},
{
closed = 1;
nodes = (
"165 114 LINE",
"165 430 LINE",
"219 425 OFFCURVE",
"291 410 OFFCURVE",
"338 393 CURVE",
"338 90 LINE"
);
}
);
width = 478;
}
);
unicode = 0070;
},
{
color = 4;
glyphname = q;
lastChange = "2019-04-24 17:43:03 +0000";
layers = (
{
layerId = "DAB95E6E-43D9-4086-BFEC-49256C9AEEE3";
paths = (
{
closed = 1;
nodes = (
"271 -21 OFFCURVE",
"257 -102 OFFCURVE",
"234 -188 CURVE",
"249 -197 LINE",
"303 -181 OFFCURVE",
"339 -165 OFFCURVE",
"385 -139 CURVE",
"381 173 OFFCURVE",
"381 277 OFFCURVE",
"389 430 CURVE",
"189 520 LINE",
"33 430 LINE",
"39 342 OFFCURVE",
"39 167 OFFCURVE",
"30 50 CURVE",
"79 33 OFFCURVE",
"134 6 OFFCURVE",
"179 -10 CURVE",
"286 65 LINE"
);
},
{
closed = 1;
nodes = (
"287 90 LINE",
"133 114 LINE",
"133 430 LINE",
"287 382 LINE"
);
}
);
width = 419;
}
);
leftMetricsKey = o;
rightMetricsKey = o;
unicode = 0071;
},
{
color = 4;
glyphname = r;
lastChange = "2019-04-24 17:43:03 +0000";
layers = (
{
layerId = "DAB95E6E-43D9-4086-BFEC-49256C9AEEE3";
paths = (
{
closed = 1;
nodes = (
"157 412 LINE",
"209 440 OFFCURVE",
"242 395 OFFCURVE",
"268 308 CURVE",
"282 308 LINE",
"342 410 LINE",
"323 457 OFFCURVE",
"303 501 OFFCURVE",
"270 520 CURVE",
"180 457 LINE",
"97 520 LINE",
"87 520 LINE",
"15 443 LINE",
"15 430 LINE",
"54 407 OFFCURVE",
"64 394 OFFCURVE",
"65 373 CURVE SMOOTH",
"65 192 LINE SMOOTH",
"65 119 OFFCURVE",
"58 92 OFFCURVE",
"49 72 CURVE",
"49 62 LINE",
"111 37 OFFCURVE",
"182 15 OFFCURVE",
"251 -10 CURVE",
"310 85 LINE",
"307 95 LINE",
"272 90 OFFCURVE",
"240 86 OFFCURVE",
"215 86 CURVE SMOOTH",
"174 86 OFFCURVE",
"166 100 OFFCURVE",
"164 153 CURVE SMOOTH",
"157 381 LINE"
);
}
);
width = 362;
}
);
unicode = 0072;
},
{
color = 4;
glyphname = s;
lastChange = "2019-04-24 17:43:03 +0000";
layers = (
{
guideLines = (
{
angle = 30;
position = "{246, 520}";
}
);
layerId = "DAB95E6E-43D9-4086-BFEC-49256C9AEEE3";
paths = (
{
closed = 1;
nodes = (
"429 407 LINE",
"390 476 OFFCURVE",
"296 514 OFFCURVE",
"246 520 CURVE",
"151 493 OFFCURVE",
"60 424 OFFCURVE",
"39 365 CURVE",
"39 323 OFFCURVE",
"59 248 OFFCURVE",
"116 182 CURVE",
"20 123 LINE",
"52 48 OFFCURVE",
"100 -10 OFFCURVE",
"204 -10 CURVE",
"314 10 OFFCURVE",
"400 75 OFFCURVE",
"426 148 CURVE",
"426 198 OFFCURVE",
"392 277 OFFCURVE",
"341 321 CURVE"
);
},
{
closed = 1;
nodes = (
"125 409 OFFCURVE",
"151 440 OFFCURVE",
"198 440 CURVE SMOOTH",
"248 440 OFFCURVE",
"294 412 OFFCURVE",
"332 364 CURVE",
"194 244 LINE",
"158 278 OFFCURVE",
"125 332 OFFCURVE",
"125 366 CURVE SMOOTH"
);
},
{
closed = 1;
nodes = (
"208 53 OFFCURVE",
"147 87 OFFCURVE",
"125 145 CURVE",
"271 260 LINE",
"303 239 OFFCURVE",
"334 172 OFFCURVE",
"334 127 CURVE SMOOTH",
"334 87 OFFCURVE",
"309 53 OFFCURVE",
"259 53 CURVE SMOOTH"
);
}
);
width = 449;
}
);
unicode = 0073;
},
{
color = 4;
glyphname = longs;
lastChange = "2019-04-24 17:43:03 +0000";
layers = (
{
layerId = "DAB95E6E-43D9-4086-BFEC-49256C9AEEE3";
paths = (
{
closed = 1;
nodes = (
"34 53 LINE",
"47 185 OFFCURVE",
"43 486 OFFCURVE",
"30 616 CURVE",
"127 710 LINE",
"160 697 OFFCURVE",
"219 666 OFFCURVE",
"242 649 CURVE",
"205 562 LINE",
"197 559 LINE",
"127 621 LINE",
"133 557 OFFCURVE",
"140 164 OFFCURVE",
"135 90 CURVE",
"210 47 LINE",
"210 27 LINE",
"125 -10 LINE"
);
}
);
width = 242;
}
);
leftMetricsKey = l;
unicode = 017F;
},
{
color = 4;
glyphname = germandbls;
lastChange = "2019-04-24 17:54:30 +0000";
layers = (
{
guideLines = (
{
angle = 30;
position = "{249, 349}";
},
{
angle = 30;
position = "{322, 521}";
}
);
layerId = "DAB95E6E-43D9-4086-BFEC-49256C9AEEE3";
paths = (
{
closed = 1;
nodes = (
"34 53 LINE",
"47 185 OFFCURVE",
"43 486 OFFCURVE",
"30 616 CURVE",
"127 710 LINE",
"160 697 OFFCURVE",
"269 676 OFFCURVE",
"302 669 CURVE",
"263 596 LINE",
"255 593 LINE",
"127 621 LINE",
"133 557 OFFCURVE",
"140 164 OFFCURVE",
"135 90 CURVE",
"210 47 LINE",
"210 27 LINE",
"125 -10 LINE"
);
},
{
closed = 1;
nodes = (
"305 362 LINE",
"402 300 LINE",
"398 239 OFFCURVE",
"391 93 OFFCURVE",
"403 -26 CURVE",
"364 -77 OFFCURVE",
"318 -128 OFFCURVE",
"266 -167 CURVE",
"256 -160 LINE",
"302 -26 OFFCURVE",
"304 1 OFFCURVE",
"304 225 CURVE SMOOTH",
"304 258 OFFCURVE",
"285 282 OFFCURVE",
"261 282 CURVE SMOOTH",
"230 282 OFFCURVE",
"134 238 OFFCURVE",
"116 227 CURVE",
"110 256 LINE"
);
},
{
closed = 1;
nodes = (
"322 521 LINE",
"350 503 OFFCURVE",
"362 486 OFFCURVE",
"384 457 CURVE",
"358 419 OFFCURVE",
"331 379 OFFCURVE",
"313 349 CURVE",
"307 349 LINE",
"292 389 OFFCURVE",
"269 429 OFFCURVE",
"247 429 CURVE SMOOTH",
"227 429 OFFCURVE",
"158 390 OFFCURVE",
"119 366 CURVE",
"106 392 LINE"
);
}
);
width = 443;
}
);
leftMetricsKey = longs;
rightMetricsKey = h;
unicode = 00DF;
},
{
color = 4;
glyphname = t;
lastChange = "2019-04-24 17:43:03 +0000";
layers = (
{
guideLines = (
{
angle = 35;
position = "{57, 60}";
},
{
angle = 35;
position = "{153, -10}";
}
);
layerId = "DAB95E6E-43D9-4086-BFEC-49256C9AEEE3";
paths = (
{
closed = 1;
nodes = (
"158 543 OFFCURVE",
"162 602 OFFCURVE",
"171 670 CURVE",
"141 677 LINE",
"111 601 OFFCURVE",
"68 511 OFFCURVE",
"15 443 CURVE",
"15 430 LINE",
"54 417 OFFCURVE",
"64 394 OFFCURVE",
"65 373 CURVE SMOOTH",
"68 303 OFFCURVE",
"67 141 OFFCURVE",
"57 60 CURVE",
"79 34 OFFCURVE",
"111 10 OFFCURVE",
"153 -10 CURVE",
"241 52 LINE",
"241 58 LINE",
"196 77 OFFCURVE",
"157 111 OFFCURVE",
"157 127 CURVE SMOOTH",
"157 242 OFFCURVE",
"156 414 OFFCURVE",
"158 465 CURVE"
);
},
{
closed = 1;
nodes = (
"128 402 LINE",
"271 402 LINE",
"271 487 LINE",
"128 487 LINE"
);
}
);
width = 286;
}
);
unicode = 0074;
},
{
color = 4;
glyphname = u;
lastChange = "2019-04-24 17:43:03 +0000";
layers = (
{
layerId = "DAB95E6E-43D9-4086-BFEC-49256C9AEEE3";
paths = (
{
closed = 1;
nodes = (
"365 520 LINE",
"355 520 LINE",
"278 443 LINE",
"278 430 LINE",
"317 417 OFFCURVE",
"327 394 OFFCURVE",
"328 373 CURVE SMOOTH",
"331 303 OFFCURVE",
"332 128 OFFCURVE",
"312 69 CURVE",
"386 -10 LINE",
"496 67 LINE",
"496 90 LINE",
"459 102 OFFCURVE",
"424 115 OFFCURVE",
"424 141 CURVE SMOOTH",
"424 266 OFFCURVE",
"433 414 OFFCURVE",
"445 465 CURVE"
);
},
{
closed = 0;
nodes = (
"62 430 LINE",
"156 430 LINE"
);
},
{
closed = 1;
nodes = (
"70 342 OFFCURVE",
"62 167 OFFCURVE",
"53 50 CURVE",
"102 33 OFFCURVE",
"152 6 OFFCURVE",
"197 -10 CURVE",
"322 74 LINE",
"325 101 LINE",
"309 90 LINE",
"211 91 OFFCURVE",
"156 96 OFFCURVE",
"156 110 CURVE SMOOTH",
"156 430 LINE",
"62 430 LINE"
);
},
{
closed = 1;
nodes = (
"156 401 LINE",
"157 416 OFFCURVE",
"167 432 OFFCURVE",
"175 447 CURVE",
"92 520 LINE",
"82 520 LINE",
"10 443 LINE",
"10 430 LINE",
"45 409 OFFCURVE",
"64 391 OFFCURVE",
"65 370 CURVE"
);
}
);
width = 511;
}
);
rightMetricsKey = i;
unicode = 0075;
},
{
color = 4;
glyphname = v;
lastChange = "2019-04-24 17:43:03 +0000";
layers = (
{
guideLines = (
{
angle = 35;
position = "{256, 520}";
}
);
layerId = "DAB95E6E-43D9-4086-BFEC-49256C9AEEE3";
paths = (
{
closed = 1;
nodes = (
"398 486 OFFCURVE",
"328 505 OFFCURVE",
"256 520 CURVE",
"157 451 LINE",
"65 357 LINE",
"67 251 OFFCURVE",
"68 138 OFFCURVE",
"67 50 CURVE",
"117 34 OFFCURVE",
"244 8 OFFCURVE",
"292 -10 CURVE",
"461 108 LINE",
"457 216 OFFCURVE",
"462 352 OFFCURVE",
"466 460 CURVE"
);
},
{
closed = 1;
nodes = (
"216 94 OFFCURVE",
"168 94 OFFCURVE",
"167 108 CURVE SMOOTH",
"159 220 OFFCURVE",
"159 339 OFFCURVE",
"161 426 CURVE",
"164 430 LINE",
"229 420 OFFCURVE",
"299 409 OFFCURVE",
"364 394 CURVE",
"364 90 LINE"
);
},
{
closed = 1;
nodes = (
"165 447 LINE",
"102 520 LINE",
"92 520 LINE",
"15 443 LINE",
"15 430 LINE",
"54 407 OFFCURVE",
"64 394 OFFCURVE",
"65 357 CURVE"
);
}
);
width = 506;
}
);
rightMetricsKey = b;
unicode = 0076;
},
{
color = 4;
glyphname = w;
lastChange = "2019-04-24 17:43:03 +0000";
layers = (
{
guideLines = (
{
angle = 45;
position = "{292, -10}";
},
{
angle = 45;
position = "{466, 520}";
}
);
layerId = "DAB95E6E-43D9-4086-BFEC-49256C9AEEE3";
paths = (
{
closed = 1;
nodes = (
"372 465 OFFCURVE",
"288 509 OFFCURVE",
"256 520 CURVE",
"157 451 LINE",
"69 357 LINE",
"71 251 OFFCURVE",
"68 148 OFFCURVE",
"57 50 CURVE",
"117 34 OFFCURVE",
"214 8 OFFCURVE",
"262 -10 CURVE",
"345 63 LINE",
"421 90 LINE",
"419 198 OFFCURVE",
"415 322 OFFCURVE",
"419 430 CURVE"
);
},
{
closed = 1;
nodes = (
"176 94 OFFCURVE",
"168 94 OFFCURVE",
"167 108 CURVE SMOOTH",
"159 220 OFFCURVE",
"159 331 OFFCURVE",
"161 418 CURVE",
"163 420 LINE",
"221 413 OFFCURVE",
"276 402 OFFCURVE",
"324 381 CURVE",
"324 90 LINE"
);
},
{
closed = 1;
nodes = (
"165 447 LINE",
"102 530 LINE",
"97 530 LINE",
"15 474 LINE",
"15 470 LINE",
"64 407 OFFCURVE",
"68 394 OFFCURVE",
"69 357 CURVE"
);
},
{
closed = 1;
nodes = (
"401 416 LINE",
"421 415 LINE",
"471 409 OFFCURVE",
"533 394 OFFCURVE",
"574 373 CURVE",
"574 70 LINE",
"411 92 LINE",
"319 65 LINE",
"369 49 OFFCURVE",
"494 8 OFFCURVE",
"542 -10 CURVE",
"671 119 LINE",
"669 227 OFFCURVE",
"672 342 OFFCURVE",
"676 450 CURVE",
"629 471 OFFCURVE",
"522 525 OFFCURVE",
"490 544 CURVE",
"392 447 LINE"
);
}
);
width = 706;
}
);
unicode = 0077;
},
{
color = 4;
glyphname = x;
lastChange = "2019-04-24 17:43:03 +0000";
layers = (
{
layerId = "DAB95E6E-43D9-4086-BFEC-49256C9AEEE3";
paths = (
{
closed = 1;
nodes = (
"10 437 LINE",
"111 491 LINE",
"234 345 OFFCURVE",
"353 200 OFFCURVE",
"485 60 CURVE",
"485 47 LINE",
"381 -10 LINE",
"259 147 OFFCURVE",
"140 290 OFFCURVE",
"10 430 CURVE"
);
},
{
closed = 1;
nodes = (
"383 520 LINE",
"460 491 LINE",
"283 268 LINE",
"252 317 LINE"
);
},
{
closed = 1;
nodes = (
"67 -10 LINE",
"0 27 LINE",
"190 239 LINE",
"234 211 LINE"
);
}
);
width = 490;
}
);
unicode = 0078;
},
{
color = 4;
glyphname = y;
lastChange = "2019-04-24 17:43:03 +0000";
layers = (
{
layerId = "DAB95E6E-43D9-4086-BFEC-49256C9AEEE3";
paths = (
{
closed = 1;
nodes = (
"182 233 OFFCURVE",
"84 376 OFFCURVE",
"-14 506 CURVE",
"-13 510 LINE",
"128 510 LINE",
"194 414 OFFCURVE",
"259 306 OFFCURVE",
"316 204 CURVE",
"367 302 OFFCURVE",
"421 430 OFFCURVE",
"458 520 CURVE",
"488 516 OFFCURVE",
"517 511 OFFCURVE",
"547 500 CURVE",
"547 497 LINE",
"390 251 OFFCURVE",
"305 26 OFFCURVE",
"244 -209 CURVE",
"148 -209 LINE",
"144 -197 LINE",
"270 95 LINE"
);
}
);
width = 553;
}
);
unicode = 0079;
},
{
color = 4;
glyphname = z;
lastChange = "2019-04-24 17:43:03 +0000";
layers = (
{
layerId = "DAB95E6E-43D9-4086-BFEC-49256C9AEEE3";
paths = (
{
closed = 1;
nodes = (
"402 0 LINE",
"393 -10 LINE",
"212 14 OFFCURVE",
"119 13 OFFCURVE",
"15 -5 CURVE",
"5 15 LINE",
"91 108 OFFCURVE",
"201 294 OFFCURVE",
"265 411 CURVE",
"184 404 OFFCURVE",
"92 405 OFFCURVE",
"18 411 CURVE",
"18 515 LINE",
"181 503 OFFCURVE",
"291 505 OFFCURVE",
"388 520 CURVE",
"392 510 LINE",
"322 380 OFFCURVE",
"191 172 OFFCURVE",
"146 97 CURVE",
"212 105 OFFCURVE",
"321 111 OFFCURVE",
"399 118 CURVE"
);
}
);
width = 407;
}
);
unicode = 007A;
},
{
color = 6;
glyphname = zero;
lastChange = "2019-04-24 17:43:03 +0000";
layers = (
{
layerId = "DAB95E6E-43D9-4086-BFEC-49256C9AEEE3";
paths = (
{
closed = 1;
nodes = (
"152 600 OFFCURVE",
"20 454 OFFCURVE",
"20 268 CURVE SMOOTH",
"20 108 OFFCURVE",
"122 -10 OFFCURVE",
"252 -10 CURVE",
"280 90 LINE",
"170 90 OFFCURVE",
"110 218 OFFCURVE",
"110 328 CURVE SMOOTH",
"110 448 OFFCURVE",
"172 510 OFFCURVE",
"202 510 CURVE",
"232 600 LINE"
);
},
{
closed = 1;
nodes = (
"322 -10 OFFCURVE",
"464 136 OFFCURVE",
"464 322 CURVE SMOOTH",
"464 482 OFFCURVE",
"362 600 OFFCURVE",
"232 600 CURVE",
"202 510 LINE",
"312 510 OFFCURVE",
"374 372 OFFCURVE",
"374 272 CURVE SMOOTH",
"374 142 OFFCURVE",
"310 90 OFFCURVE",
"280 90 CURVE",
"252 -10 LINE"
);
}
);
width = 484;
}
);
unicode = 0030;
},
{
color = 6;
glyphname = one;
lastChange = "2019-04-24 17:43:03 +0000";
layers = (
{
layerId = "DAB95E6E-43D9-4086-BFEC-49256C9AEEE3";
paths = (
{
closed = 1;
nodes = (
"15 426 LINE",
"30 510 LINE",
"109 520 OFFCURVE",
"211 564 OFFCURVE",
"259 610 CURVE",
"285 598 LINE",
"263 393 OFFCURVE",
"268 194 OFFCURVE",
"290 0 CURVE",
"134 0 LINE",
"154 144 OFFCURVE",
"172 363 OFFCURVE",
"172 469 CURVE",
"24 417 LINE"
);
}
);
width = 333;
}
);
unicode = 0031;
},
{
color = 6;
glyphname = two;
lastChange = "2019-04-24 17:43:03 +0000";
layers = (
{
layerId = "DAB95E6E-43D9-4086-BFEC-49256C9AEEE3";
paths = (
{
closed = 1;
nodes = (
"429 104 LINE",
"423 117 LINE",
"148 96 LINE",
"285 259 LINE SMOOTH",
"364 353 OFFCURVE",
"397 393 OFFCURVE",
"397 442 CURVE SMOOTH",
"397 536 OFFCURVE",
"321 600 OFFCURVE",
"231 600 CURVE SMOOTH",
"141 600 OFFCURVE",
"44 527 OFFCURVE",
"44 427 CURVE SMOOTH",
"44 310 OFFCURVE",
"151 257 OFFCURVE",
"266 286 CURVE",
"245 291 LINE",
"176 203 OFFCURVE",
"104 124 OFFCURVE",
"25 46 CURVE",
"36 0 LINE",
"143 -1 OFFCURVE",
"263 -2 OFFCURVE",
"388 -10 CURVE"
);
},
{
closed = 1;
nodes = (
"211 330 CURVE SMOOTH",
"151 330 OFFCURVE",
"119 370 OFFCURVE",
"119 420 CURVE SMOOTH",
"119 480 OFFCURVE",
"161 510 OFFCURVE",
"215 510 CURVE SMOOTH",
"264 510 OFFCURVE",
"301 470 OFFCURVE",
"301 420 CURVE SMOOTH",
"301 370 OFFCURVE",
"261 330 OFFCURVE"
);
}
);
width = 449;
}
);
unicode = 0032;
},
{
color = 6;
glyphname = three;
lastChange = "2019-04-24 17:43:03 +0000";
layers = (
{
layerId = "DAB95E6E-43D9-4086-BFEC-49256C9AEEE3";
paths = (
{
closed = 1;
nodes = (
"225 288 LINE",
"269 300 OFFCURVE",
"388 361 OFFCURVE",
"388 463 CURVE SMOOTH",
"388 553 OFFCURVE",
"309 600 OFFCURVE",
"229 600 CURVE SMOOTH",
"141 600 OFFCURVE",
"69 557 OFFCURVE",
"37 472 CURVE",
"104 453 LINE",
"122 487 OFFCURVE",
"161 510 OFFCURVE",
"205 510 CURVE SMOOTH",
"255 510 OFFCURVE",
"288 480 OFFCURVE",
"288 430 CURVE SMOOTH",
"288 358 OFFCURVE",
"231 323 OFFCURVE",
"156 323 CURVE SMOOTH",
"125 323 LINE",
"105 291 LINE",
"233 257 OFFCURVE",
"290 220 OFFCURVE",
"290 145 CURVE SMOOTH",
"290 100 OFFCURVE",
"262 70 OFFCURVE",
"218 70 CURVE SMOOTH",
"159 70 OFFCURVE",
"116 115 OFFCURVE",
"101 143 CURVE",
"14 124 LINE",
"10 113 LINE",
"33 70 OFFCURVE",
"83 -10 OFFCURVE",
"174 -10 CURVE SMOOTH",
"265 -10 OFFCURVE",
"401 81 OFFCURVE",
"401 168 CURVE SMOOTH",
"401 239 OFFCURVE",
"341 278 OFFCURVE",
"265 308 CURVE"
);
}
);
width = 421;
}
);
unicode = 0033;
},
{
color = 6;
glyphname = four;
lastChange = "2019-04-24 17:43:03 +0000";
layers = (
{
layerId = "DAB95E6E-43D9-4086-BFEC-49256C9AEEE3";
paths = (
{
closed = 1;
nodes = (
"300 584 CURVE",
"425 598 LINE",
"403 393 OFFCURVE",
"408 194 OFFCURVE",
"430 0 CURVE",
"284 0 LINE",
"311 207 OFFCURVE",
"315 420 OFFCURVE"
);
},
{
closed = 1;
nodes = (
"333 545 LINE",
"116 268 LINE",
"323 231 LINE",
"367 253 LINE",
"548 253 LINE",
"557 168 LINE",
"549 159 LINE",
"398 175 OFFCURVE",
"227 185 OFFCURVE",
"45 185 CURVE",
"16 211 LINE",
"300 584 LINE"
);
}
);
width = 581;
}
);
unicode = 0034;
},
{
color = 6;
glyphname = five;
lastChange = "2019-04-24 17:43:03 +0000";
layers = (
{
layerId = "DAB95E6E-43D9-4086-BFEC-49256C9AEEE3";
paths = (
{
closed = 1;
nodes = (
"355 580 LINE",
"255 574 OFFCURVE",
"159 582 OFFCURVE",
"60 586 CURVE",
"55 581 LINE",
"62 469 OFFCURVE",
"61 355 OFFCURVE",
"60 243 CURVE",
"78 240 LINE",
"93 259 OFFCURVE",
"115 274 OFFCURVE",
"143 274 CURVE SMOOTH",
"212 274 OFFCURVE",
"247 225 OFFCURVE",
"247 166 CURVE SMOOTH",
"247 111 OFFCURVE",
"217 62 OFFCURVE",
"160 62 CURVE SMOOTH",
"110 62 OFFCURVE",
"71 96 OFFCURVE",
"56 148 CURVE",
"40 148 LINE",
"40 42 LINE",
"64 17 OFFCURVE",
"98 -10 OFFCURVE",
"171 -10 CURVE SMOOTH",
"281 -10 OFFCURVE",
"357 70 OFFCURVE",
"357 180 CURVE SMOOTH",
"357 275 OFFCURVE",
"284 354 OFFCURVE",
"189 354 CURVE SMOOTH",
"149 354 OFFCURVE",
"123 344 OFFCURVE",
"96 324 CURVE",
"127 304 LINE",
"120 384 OFFCURVE",
"125 462 OFFCURVE",
"127 542 CURVE",
"105 510 LINE",
"355 510 LINE"
);
}
);
width = 397;
}
);
unicode = 0035;
},
{
color = 6;
glyphname = six;
lastChange = "2019-04-24 17:43:03 +0000";
layers = (
{
layerId = "DAB95E6E-43D9-4086-BFEC-49256C9AEEE3";
paths = (
{
closed = 1;
nodes = (
"324 -10 OFFCURVE",
"430 72 OFFCURVE",
"430 201 CURVE SMOOTH",
"430 291 OFFCURVE",
"351 372 OFFCURVE",
"255 372 CURVE SMOOTH",
"219 372 OFFCURVE",
"193 363 OFFCURVE",
"172 354 CURVE",
"207 416 OFFCURVE",
"272 520 OFFCURVE",
"319 588 CURVE",
"318 590 LINE",
"221 590 LINE",
"101 366 LINE SMOOTH",
"52 275 OFFCURVE",
"30 228 OFFCURVE",
"30 171 CURVE SMOOTH",
"30 71 OFFCURVE",
"89 -10 OFFCURVE",
"219 -10 CURVE SMOOTH"
);
},
{
closed = 1;
nodes = (
"305 322 OFFCURVE",
"350 271 OFFCURVE",
"350 201 CURVE SMOOTH",
"350 136 OFFCURVE",
"295 90 OFFCURVE",
"235 90 CURVE SMOOTH",
"170 90 OFFCURVE",
"120 136 OFFCURVE",
"120 201 CURVE SMOOTH",
"120 271 OFFCURVE",
"165 322 OFFCURVE",
"235 322 CURVE SMOOTH"
);
}
);
width = 460;
}
);
unicode = 0036;
},
{
color = 6;
glyphname = seven;
lastChange = "2019-04-24 17:43:03 +0000";
layers = (
{
layerId = "DAB95E6E-43D9-4086-BFEC-49256C9AEEE3";
paths = (
{
closed = 1;
nodes = (
"0 477 LINE",
"63 590 LINE",
"185 582 OFFCURVE",
"344 577 OFFCURVE",
"408 585 CURVE",
"416 571 LINE",
"358 465 OFFCURVE",
"274 225 OFFCURVE",
"273 0 CURVE",
"165 0 LINE",
"193 151 OFFCURVE",
"261 348 OFFCURVE",
"330 491 CURVE",
"330 467 LINE",
"250 479 OFFCURVE",
"117 472 OFFCURVE",
"14 457 CURVE"
);
}
);
width = 426;
}
);
unicode = 0037;
},
{
color = 6;
glyphname = eight;
lastChange = "2019-04-24 17:43:03 +0000";
layers = (
{
layerId = "DAB95E6E-43D9-4086-BFEC-49256C9AEEE3";
paths = (
{
closed = 1;
nodes = (
"110 305 OFFCURVE",
"40 226 OFFCURVE",
"40 141 CURVE SMOOTH",
"40 62 OFFCURVE",
"102 -10 OFFCURVE",
"217 -10 CURVE SMOOTH",
"299 -10 OFFCURVE",
"397 62 OFFCURVE",
"397 151 CURVE SMOOTH",
"397 241 OFFCURVE",
"318 305 OFFCURVE",
"224 305 CURVE SMOOTH"
);
},
{
closed = 1;
nodes = (
"259 254 OFFCURVE",
"302 208 OFFCURVE",
"302 148 CURVE SMOOTH",
"302 78 OFFCURVE",
"257 43 OFFCURVE",
"199 43 CURVE SMOOTH",
"132 43 OFFCURVE",
"93 93 OFFCURVE",
"93 148 CURVE SMOOTH",
"93 213 OFFCURVE",
"142 254 OFFCURVE",
"199 254 CURVE SMOOTH"
);
},
{
closed = 1;
nodes = (
"310 278 OFFCURVE",
"394 354 OFFCURVE",
"394 449 CURVE SMOOTH",
"394 518 OFFCURVE",
"338 593 OFFCURVE",
"221 593 CURVE SMOOTH",
"112 593 OFFCURVE",
"30 528 OFFCURVE",
"30 429 CURVE SMOOTH",
"30 349 OFFCURVE",
"112 278 OFFCURVE",
"197 278 CURVE SMOOTH"
);
},
{
closed = 1;
nodes = (
"147 327 OFFCURVE",
"125 392 OFFCURVE",
"125 437 CURVE SMOOTH",
"125 491 OFFCURVE",
"162 543 OFFCURVE",
"235 543 CURVE SMOOTH",
"298 543 OFFCURVE",
"331 496 OFFCURVE",
"331 437 CURVE SMOOTH",
"331 372 OFFCURVE",
"293 327 OFFCURVE",
"235 327 CURVE SMOOTH"
);
}
);
width = 420;
}
);
unicode = 0038;
},
{
color = 6;
glyphname = nine;
lastChange = "2019-04-24 17:43:03 +0000";
layers = (
{
layerId = "DAB95E6E-43D9-4086-BFEC-49256C9AEEE3";
paths = (
{
closed = 1;
nodes = (
"117 600 OFFCURVE",
"27 512 OFFCURVE",
"27 393 CURVE SMOOTH",
"27 293 OFFCURVE",
"90 211 OFFCURVE",
"200 211 CURVE SMOOTH",
"219 211 OFFCURVE",
"252 217 OFFCURVE",
"277 234 CURVE",
"242 169 OFFCURVE",
"179 70 OFFCURVE",
"132 2 CURVE",
"133 0 LINE",
"230 0 LINE",
"349 234 LINE SMOOTH",
"379 293 OFFCURVE",
"407 356 OFFCURVE",
"407 409 CURVE SMOOTH",
"407 529 OFFCURVE",
"322 600 OFFCURVE",
"222 600 CURVE SMOOTH"
);
},
{
closed = 1;
nodes = (
"153 265 OFFCURVE",
"101 313 OFFCURVE",
"101 393 CURVE SMOOTH",
"101 463 OFFCURVE",
"150 510 OFFCURVE",
"220 510 CURVE SMOOTH",
"290 510 OFFCURVE",
"345 458 OFFCURVE",
"345 383 CURVE SMOOTH",
"345 328 OFFCURVE",
"303 265 OFFCURVE",
"223 265 CURVE SMOOTH"
);
}
);
width = 420;
}
);
unicode = 0039;
},
{
color = 10;
glyphname = period;
lastChange = "2019-04-24 17:43:03 +0000";
layers = (
{
layerId = "DAB95E6E-43D9-4086-BFEC-49256C9AEEE3";
paths = (
{
closed = 1;
nodes = (
"28 104 OFFCURVE",
"58 132 OFFCURVE",
"87 155 CURVE",
"93 155 LINE",
"110 142 OFFCURVE",
"150 98 OFFCURVE",
"168 75 CURVE",
"168 71 LINE",
"149 42 OFFCURVE",
"115 10 OFFCURVE",
"85 -10 CURVE",
"81 -10 LINE",
"57 14 OFFCURVE",
"28 46 OFFCURVE",
"10 72 CURVE",
"10 76 LINE"
);
}
);
width = 178;
}
);
unicode = 002E;
},
{
color = 10;
glyphname = comma;
lastChange = "2019-04-24 17:43:03 +0000";
layers = (
{
layerId = "DAB95E6E-43D9-4086-BFEC-49256C9AEEE3";
paths = (
{
closed = 1;
nodes = (
"87 184 LINE",
"182 169 LINE",
"150 89 OFFCURVE",
"108 8 OFFCURVE",
"65 -72 CURVE",
"20 -60 LINE"
);
}
);
width = 192;
}
);
unicode = 002C;
},
{
color = 10;
glyphname = semicolon;
lastChange = "2019-04-24 17:43:03 +0000";
layers = (
{
layerId = "DAB95E6E-43D9-4086-BFEC-49256C9AEEE3";
paths = (
{
closed = 1;
nodes = (
"130 177 LINE",
"186 157 LINE",
"58 -53 LINE",
"30 -43 LINE"
);
},
{
closed = 1;
nodes = (
"57 327 OFFCURVE",
"90 359 OFFCURVE",
"117 385 CURVE",
"123 385 LINE",
"140 369 OFFCURVE",
"174 328 OFFCURVE",
"192 305 CURVE",
"192 301 LINE",
"170 274 OFFCURVE",
"136 242 OFFCURVE",
"109 220 CURVE",
"105 220 LINE",
"84 248 OFFCURVE",
"55 280 OFFCURVE",
"34 302 CURVE",
"34 306 LINE"
);
}
);
width = 192;
}
);
unicode = 003B;
},
{
color = 10;
glyphname = guillemetleft;
lastChange = "2019-04-24 17:43:03 +0000";
layers = (
{
layerId = "DAB95E6E-43D9-4086-BFEC-49256C9AEEE3";
paths = (
{
closed = 1;
nodes = (
"142 118 LINE",
"20 -27 LINE",
"47 -46 LINE",
"160 105 LINE"
);
},
{
closed = 1;
nodes = (
"216 102 LINE",
"105 -82 LINE",
"71 -59 LINE",
"197 108 LINE"
);
}
);
width = 236;
}
);
unicode = 00AB;
},
{
color = 10;
glyphname = guillemetright;
lastChange = "2019-04-24 17:43:03 +0000";
layers = (
{
layerId = "DAB95E6E-43D9-4086-BFEC-49256C9AEEE3";
paths = (
{
closed = 1;
nodes = (
"20 525 LINE",
"175 760 LINE",
"220 737 LINE",
"52 503 LINE"
);
},
{
closed = 1;
nodes = (
"264 760 LINE",
"308 733 LINE",
"135 463 LINE",
"105 487 LINE"
);
}
);
width = 328;
}
);
unicode = 00BB;
},
{
color = 10;
glyphname = exclam;
lastChange = "2019-04-24 17:43:03 +0000";
layers = (
{
components = (
{
name = period;
transform = "{1, 0, 0, 1, 10, 0}";
}
);
layerId = "DAB95E6E-43D9-4086-BFEC-49256C9AEEE3";
paths = (
{
closed = 1;
nodes = (
"170 242 LINE",
"180 676 LINE",
"179 677 LINE",
"57 632 LINE",
"82 284 LINE",
"167 240 LINE"
);
}
);
width = 200;
}
);
unicode = 0021;
},
{
color = 10;
glyphname = question;
lastChange = "2019-04-24 17:43:03 +0000";
layers = (
{
components = (
{
name = period;
transform = "{1, 0, 0, 1, 34, 0}";
}
);
layerId = "DAB95E6E-43D9-4086-BFEC-49256C9AEEE3";
paths = (
{
closed = 1;
nodes = (
"79 202 OFFCURVE",
"36 247 OFFCURVE",
"36 314 CURVE SMOOTH",
"36 391 OFFCURVE",
"131 467 OFFCURVE",
"131 536 CURVE SMOOTH",
"131 607 OFFCURVE",
"64 659 OFFCURVE",
"20 691 CURVE",
"20 699 LINE",
"139 750 LINE",
"188 706 OFFCURVE",
"249 636 OFFCURVE",
"249 573 CURVE SMOOTH",
"249 490 OFFCURVE",
"130 452 OFFCURVE",
"130 352 CURVE SMOOTH",
"130 299 OFFCURVE",
"169 251 OFFCURVE",
"203 225 CURVE",
"126 170 LINE",
"123 170 LINE"
);
}
);
width = 269;
}
);
unicode = 003F;
},
{
color = 10;
glyphname = hyphen;
lastChange = "2019-04-24 17:43:03 +0000";
layers = (
{
layerId = "DAB95E6E-43D9-4086-BFEC-49256C9AEEE3";
paths = (
{
closed = 1;
nodes = (
"287 305 LINE",
"283 298 LINE",
"20 290 LINE",
"20 341 LINE",
"264 357 LINE"
);
},
{
closed = 1;
nodes = (
"291 185 LINE",
"287 178 LINE",
"24 170 LINE",
"24 221 LINE",
"268 237 LINE"
);
}
);
width = 311;
}
);
unicode = 002D;
},
{
color = 10;
glyphname = emdash;
lastChange = "2019-04-24 17:43:03 +0000";
layers = (
{
layerId = "DAB95E6E-43D9-4086-BFEC-49256C9AEEE3";
paths = (
{
closed = 1;
nodes = (
"20 294 LINE",
"549 311 LINE",
"538 238 LINE",
"22 240 LINE"
);
}
);
width = 569;
}
);
unicode = 2014;
},
{
color = 10;
glyphname = parenleft;
lastChange = "2019-04-24 17:43:03 +0000";
layers = (
{
layerId = "DAB95E6E-43D9-4086-BFEC-49256C9AEEE3";
paths = (
{
closed = 1;
nodes = (
"253 -124 LINE",
"151 7 OFFCURVE",
"93 148 OFFCURVE",
"96 304 CURVE SMOOTH",
"99 424 OFFCURVE",
"131 555 OFFCURVE",
"238 676 CURVE",
"194 710 LINE",
"96 596 OFFCURVE",
"30 440 OFFCURVE",
"30 294 CURVE SMOOTH",
"30 122 OFFCURVE",
"110 -27 OFFCURVE",
"220 -154 CURVE"
);
}
);
width = 263;
}
);
unicode = 0028;
},
{
color = 10;
export = 0;
glyphname = dieresis;
lastChange = "2019-04-24 17:42:53 +0000";
layers = (
{
layerId = "DAB95E6E-43D9-4086-BFEC-49256C9AEEE3";
paths = (
{
closed = 1;
nodes = (
"267 750 LINE",
"177 565 LINE",
"134 565 LINE",
"179 750 LINE"
);
},
{
closed = 1;
nodes = (
"392 750 LINE",
"304 565 LINE",
"259 565 LINE",
"304 750 LINE"
);
}
);
width = 600;
}
);
unicode = 00A8;
},
{
glyphname = mark;
lastChange = "2019-04-24 09:32:57 +0000";
layers = (
{
layerId = "DAB95E6E-43D9-4086-BFEC-49256C9AEEE3";
paths = (
{
closed = 1;
nodes = (
"431 -225 OFFCURVE",
"533 -130 OFFCURVE",
"533 -10 CURVE SMOOTH",
"533 111 OFFCURVE",
"437 208 OFFCURVE",
"317 208 CURVE SMOOTH",
"196 208 OFFCURVE",
"94 111 OFFCURVE",
"94 -10 CURVE SMOOTH",
"94 -127 OFFCURVE",
"182 -225 OFFCURVE",
"317 -225 CURVE SMOOTH"
);
},
{
closed = 1;
nodes = (
"215 -188 OFFCURVE",
"134 -115 OFFCURVE",
"134 -9 CURVE SMOOTH",
"134 91 OFFCURVE",
"209 174 OFFCURVE",
"318 174 CURVE SMOOTH",
"417 174 OFFCURVE",
"493 91 OFFCURVE",
"493 -9 CURVE SMOOTH",
"493 -114 OFFCURVE",
"418 -188 OFFCURVE",
"318 -188 CURVE SMOOTH"
);
},
{
closed = 1;
nodes = (
"293 560 OFFCURVE",
"296 375 OFFCURVE",
"295 196 CURVE",
"331 194 LINE",
"333 374 OFFCURVE",
"325 561 OFFCURVE",
"338 735 CURVE",
"291 735 LINE"
);
},
{
closed = 1;
nodes = (
"115 413 LINE",
"249 416 OFFCURVE",
"385 415 OFFCURVE",
"519 413 CURVE",
"519 459 LINE",
"445 453 OFFCURVE",
"249 447 OFFCURVE",
"115 451 CURVE"
);
},
{
closed = 1;
nodes = (
"115 522 LINE",
"249 526 OFFCURVE",
"385 528 OFFCURVE",
"519 525 CURVE",
"519 570 LINE",
"425 563 OFFCURVE",
"249 556 OFFCURVE",
"115 562 CURVE"
);
}
